<svg xmlns="http://www.w3.org/2000/svg" viewBox="0 0 500 500"><g id="freepik--Shadow--inject-62"><ellipse id="freepik--path--inject-62" cx="250" cy="416.24" rx="193.89" ry="11.32" style="fill:#f5f5f5"></ellipse></g><g id="freepik--Coins--inject-62"><path d="M184,384.06l-4.3,4.84a1.13,1.13,0,0,1-1.56.09l-21.58-19.2a1.1,1.1,0,0,1-.09-1.56l4.3-4.83a.93.93,0,0,1,.27-.22,1.09,1.09,0,0,1,1.29.13l21.58,19.19a1.09,1.09,0,0,1,.27,1.26A.78.78,0,0,1,184,384.06Z" style="fill:#263238"></path><path d="M184,384.06l-4.3,4.84a1.13,1.13,0,0,1-1.56.09l-21.58-19.2a1.1,1.1,0,0,1-.09-1.56l4.3-4.83a.93.93,0,0,1,.27-.22,1.09,1.09,0,0,1,1.29.13l21.58,19.19a1.09,1.09,0,0,1,.27,1.26A.78.78,0,0,1,184,384.06Z" style="fill:#fff;opacity:0.5"></path><path d="M178.45,387.56l3.91-4.39a.38.38,0,1,0-.56-.5l-3.91,4.4L176.63,386l3.91-4.4a.37.37,0,1,0-.55-.5l-3.92,4.4-1.26-1.12,3.91-4.4a.37.37,0,1,0-.55-.49l-3.92,4.39L173,382.71l3.92-4.4a.37.37,0,0,0-.56-.49l-3.91,4.4-1.27-1.12,3.92-4.4a.39.39,0,0,0,0-.53.38.38,0,0,0-.53,0l-3.91,4.4-1.26-1.12,3.91-4.4a.38.38,0,0,0,0-.53.39.39,0,0,0-.53,0L168.8,379l-1.26-1.12,3.91-4.4a.37.37,0,0,0-.56-.49l-3.91,4.4-1.26-1.12,3.91-4.4a.37.37,0,1,0-.55-.5l-3.92,4.4-1.26-1.12,3.91-4.4a.37.37,0,0,0,0-.53.37.37,0,0,0-.52,0l-3.92,4.4-1.23-1.1,0,0,3.91-4.4a.37.37,0,0,0,0-.52.37.37,0,0,0-.53,0l-3.69,4.14a1.09,1.09,0,0,1,.29-.77l2.63-3.1a1.09,1.09,0,0,0-.07-1.58l-3-2.7a1.13,1.13,0,0,0-1.58.08l-3.53,4.06a1.08,1.08,0,0,0,.07,1.55L178.1,389a1.14,1.14,0,0,0,1.59-.09l.11-.12Z" style="opacity:0.1"></path><path d="M184.14,383.76,161,363.18a1.09,1.09,0,0,1,1.29.13l21.58,19.19A1.09,1.09,0,0,1,184.14,383.76Z" style="fill:#fff;opacity:0.30000000000000004"></path><path d="M119.51,407.51V414a1.1,1.1,0,0,1-1.1,1.1H89.53a1.11,1.11,0,0,1-1.11-1.1v-6.47a1,1,0,0,1,.06-.35,1.09,1.09,0,0,1,1-.76h28.88a1.11,1.11,0,0,1,1,.76A.83.83,0,0,1,119.51,407.51Z" style="fill:#263238"></path><path d="M119.51,407.51V414a1.1,1.1,0,0,1-1.1,1.1H89.53a1.11,1.11,0,0,1-1.11-1.1v-6.47a1,1,0,0,1,.06-.35,1.09,1.09,0,0,1,1-.76h28.88a1.11,1.11,0,0,1,1,.76A.83.83,0,0,1,119.51,407.51Z" style="fill:#fff;opacity:0.5"></path><path d="M117.72,413.79V407.9a.37.37,0,1,0-.74,0v5.89h-1.69V407.9a.38.38,0,0,0-.75,0v5.89h-1.68V407.9a.38.38,0,0,0-.75,0v5.89h-1.69V407.9a.37.37,0,1,0-.74,0v5.89H108V407.9a.38.38,0,0,0-.75,0v5.89h-1.68V407.9a.38.38,0,0,0-.75,0v5.89h-1.69V407.9a.37.37,0,0,0-.74,0v5.89h-1.69V407.9a.38.38,0,0,0-.75,0v5.89H98.26V407.9a.38.38,0,0,0-.75,0v5.89H95.82V407.9a.37.37,0,0,0-.74,0v5.55a1.06,1.06,0,0,1-.3-.77l-.1-4.07a1.09,1.09,0,0,0-1.09-1.13H89.52a1.14,1.14,0,0,0-1.13,1.11l.07,5.38a1.07,1.07,0,0,0,1.07,1.11H118.4a1.15,1.15,0,0,0,1.13-1.13v-.16Z" style="opacity:0.1"></path><path d="M119.45,407.16h-31a1.09,1.09,0,0,1,1-.76h28.88A1.11,1.11,0,0,1,119.45,407.16Z" style="fill:#fff;opacity:0.30000000000000004"></path><path d="M117.51,398.7v6.47a1.11,1.11,0,0,1-1.1,1.11H87.53a1.11,1.11,0,0,1-1.11-1.11V398.7a.93.93,0,0,1,.06-.34,1.08,1.08,0,0,1,1-.76h28.88a1.1,1.1,0,0,1,1,.76A.76.76,0,0,1,117.51,398.7Z" style="fill:#263238"></path><path d="M117.51,398.7v6.47a1.11,1.11,0,0,1-1.1,1.11H87.53a1.11,1.11,0,0,1-1.11-1.11V398.7a.93.93,0,0,1,.06-.34,1.08,1.08,0,0,1,1-.76h28.88a1.1,1.1,0,0,1,1,.76A.76.76,0,0,1,117.51,398.7Z" style="fill:#fff;opacity:0.5"></path><path d="M115.72,405V399.1a.37.37,0,1,0-.74,0V405h-1.69V399.1a.38.38,0,1,0-.75,0V405h-1.68V399.1a.38.38,0,1,0-.75,0V405h-1.69V399.1a.37.37,0,1,0-.74,0V405H106V399.1a.38.38,0,1,0-.75,0V405h-1.68V399.1a.38.38,0,1,0-.75,0V405h-1.69V399.1a.37.37,0,1,0-.74,0V405H98.69V399.1a.38.38,0,1,0-.75,0V405H96.26V399.1a.38.38,0,1,0-.75,0V405H93.82V399.1a.37.37,0,1,0-.74,0v5.55a1.09,1.09,0,0,1-.3-.78l-.1-4.06a1.09,1.09,0,0,0-1.1-1.14H87.52a1.14,1.14,0,0,0-1.13,1.11l.07,5.38a1.07,1.07,0,0,0,1.07,1.11H116.4a1.15,1.15,0,0,0,1.13-1.12V405Z" style="opacity:0.1"></path><path d="M117.45,398.36h-31a1.08,1.08,0,0,1,1-.76h28.88A1.1,1.1,0,0,1,117.45,398.36Z" style="fill:#fff;opacity:0.30000000000000004"></path><path d="M117.51,389.9v6.47a1.1,1.1,0,0,1-1.1,1.1H87.53a1.1,1.1,0,0,1-1.11-1.1V389.9a1,1,0,0,1,.06-.35,1.09,1.09,0,0,1,1-.76h28.88a1.11,1.11,0,0,1,1,.76A.83.83,0,0,1,117.51,389.9Z" style="fill:#263238"></path><path d="M117.51,389.9v6.47a1.1,1.1,0,0,1-1.1,1.1H87.53a1.1,1.1,0,0,1-1.11-1.1V389.9a1,1,0,0,1,.06-.35,1.09,1.09,0,0,1,1-.76h28.88a1.11,1.11,0,0,1,1,.76A.83.83,0,0,1,117.51,389.9Z" style="fill:#fff;opacity:0.5"></path><path d="M115.72,396.18v-5.89a.37.37,0,1,0-.74,0v5.89h-1.69v-5.89a.38.38,0,0,0-.75,0v5.89h-1.68v-5.89a.38.38,0,0,0-.75,0v5.89h-1.69v-5.89a.37.37,0,1,0-.74,0v5.89H106v-5.89a.38.38,0,0,0-.75,0v5.89h-1.68v-5.89a.38.38,0,0,0-.75,0v5.89h-1.69v-5.89a.37.37,0,0,0-.74,0v5.89H98.69v-5.89a.38.38,0,0,0-.75,0v5.89H96.26v-5.89a.38.38,0,0,0-.75,0v5.89H93.82v-5.88a.37.37,0,0,0-.74,0v5.55a1.06,1.06,0,0,1-.3-.77l-.1-4.07a1.09,1.09,0,0,0-1.1-1.13H87.52A1.14,1.14,0,0,0,86.39,391l.07,5.38a1.07,1.07,0,0,0,1.07,1.11H116.4a1.15,1.15,0,0,0,1.13-1.13v-.16Z" style="opacity:0.1"></path><path d="M117.45,389.55h-31a1.09,1.09,0,0,1,1-.76h28.88A1.11,1.11,0,0,1,117.45,389.55Z" style="fill:#fff;opacity:0.30000000000000004"></path><path d="M117.51,381.09v6.47a1.11,1.11,0,0,1-1.1,1.11H87.53a1.1,1.1,0,0,1-1.11-1.11v-6.47a.93.93,0,0,1,.06-.34,1.08,1.08,0,0,1,1-.76h28.88a1.1,1.1,0,0,1,1,.76A.76.76,0,0,1,117.51,381.09Z" style="fill:#263238"></path><path d="M117.51,381.09v6.47a1.11,1.11,0,0,1-1.1,1.11H87.53a1.1,1.1,0,0,1-1.11-1.11v-6.47a.93.93,0,0,1,.06-.34,1.08,1.08,0,0,1,1-.76h28.88a1.1,1.1,0,0,1,1,.76A.76.76,0,0,1,117.51,381.09Z" style="fill:#fff;opacity:0.5"></path><path d="M115.72,387.37v-5.88a.37.37,0,1,0-.74,0v5.88h-1.69v-5.88a.38.38,0,1,0-.75,0v5.88h-1.68v-5.88a.38.38,0,1,0-.75,0v5.88h-1.69v-5.88a.37.37,0,1,0-.74,0v5.88H106v-5.88a.38.38,0,1,0-.75,0v5.88h-1.68v-5.88a.38.38,0,1,0-.75,0v5.88h-1.69v-5.88a.37.37,0,1,0-.74,0v5.88H98.69v-5.88a.38.38,0,1,0-.75,0v5.88H96.26v-5.88a.38.38,0,1,0-.75,0v5.88H93.82v-5.88a.37.37,0,1,0-.74,0V387a1.07,1.07,0,0,1-.3-.78l-.1-4.06a1.09,1.09,0,0,0-1.1-1.13H87.52a1.14,1.14,0,0,0-1.13,1.11l.07,5.38a1.07,1.07,0,0,0,1.07,1.11H116.4a1.15,1.15,0,0,0,1.13-1.13v-.17Z" style="opacity:0.1"></path><path d="M117.45,380.75h-31a1.08,1.08,0,0,1,1-.76h28.88A1.1,1.1,0,0,1,117.45,380.75Z" style="fill:#fff;opacity:0.30000000000000004"></path><path d="M115.51,372.29v6.47a1.11,1.11,0,0,1-1.1,1.1H85.52a1.1,1.1,0,0,1-1.1-1.1v-6.47a1,1,0,0,1,.06-.35,1.08,1.08,0,0,1,1-.76h28.89a1.12,1.12,0,0,1,1,.76A.83.83,0,0,1,115.51,372.29Z" style="fill:#263238"></path><path d="M115.51,372.29v6.47a1.11,1.11,0,0,1-1.1,1.1H85.52a1.1,1.1,0,0,1-1.1-1.1v-6.47a1,1,0,0,1,.06-.35,1.08,1.08,0,0,1,1-.76h28.89a1.12,1.12,0,0,1,1,.76A.83.83,0,0,1,115.51,372.29Z" style="fill:#fff;opacity:0.5"></path><path d="M113.72,378.57v-5.89a.38.38,0,0,0-.37-.37.37.37,0,0,0-.37.37v5.89h-1.69v-5.89a.38.38,0,0,0-.75,0v5.89h-1.69v-5.89a.37.37,0,0,0-.37-.37.38.38,0,0,0-.37.37v5.89h-1.69v-5.89a.38.38,0,0,0-.37-.37.37.37,0,0,0-.37.37v5.89H104v-5.89a.38.38,0,0,0-.75,0v5.89h-1.69v-5.89a.37.37,0,0,0-.37-.37.38.38,0,0,0-.37.37v5.89H99.12v-5.89a.38.38,0,0,0-.37-.37.37.37,0,0,0-.37.37v5.89H96.69v-5.89a.38.38,0,0,0-.75,0v5.89H94.25v-5.89a.37.37,0,0,0-.37-.37.38.38,0,0,0-.37.37v5.89H91.82v-5.88a.38.38,0,0,0-.37-.37.37.37,0,0,0-.37.37v5.55a1.06,1.06,0,0,1-.3-.77l-.1-4.06a1.09,1.09,0,0,0-1.1-1.14H85.52a1.14,1.14,0,0,0-1.13,1.11l.06,5.38a1.08,1.08,0,0,0,1.08,1.11H114.4a1.15,1.15,0,0,0,1.13-1.12v-.17Z" style="opacity:0.1"></path><path d="M115.45,371.94h-31a1.08,1.08,0,0,1,1-.76h28.89A1.12,1.12,0,0,1,115.45,371.94Z" style="fill:#fff;opacity:0.30000000000000004"></path><path d="M117.51,363.48V370a1.11,1.11,0,0,1-1.1,1.11H87.53A1.1,1.1,0,0,1,86.42,370v-6.47a.93.93,0,0,1,.06-.34,1.08,1.08,0,0,1,1-.76h28.88a1.1,1.1,0,0,1,1,.76A.76.76,0,0,1,117.51,363.48Z" style="fill:#263238"></path><path d="M117.51,363.48V370a1.11,1.11,0,0,1-1.1,1.11H87.53A1.1,1.1,0,0,1,86.42,370v-6.47a.93.93,0,0,1,.06-.34,1.08,1.08,0,0,1,1-.76h28.88a1.1,1.1,0,0,1,1,.76A.76.76,0,0,1,117.51,363.48Z" style="fill:#fff;opacity:0.5"></path><path d="M115.72,369.77v-5.89a.37.37,0,0,0-.74,0v5.89h-1.69v-5.89a.38.38,0,0,0-.75,0v5.89h-1.68v-5.89a.38.38,0,0,0-.75,0v5.89h-1.69v-5.89a.37.37,0,1,0-.74,0v5.89H106v-5.89a.38.38,0,0,0-.75,0v5.89h-1.68v-5.89a.38.38,0,0,0-.75,0v5.89h-1.69v-5.89a.37.37,0,0,0-.74,0v5.89H98.69v-5.89a.38.38,0,0,0-.75,0v5.89H96.26v-5.89a.38.38,0,0,0-.75,0v5.89H93.82v-5.88a.37.37,0,0,0-.74,0v5.55a1.06,1.06,0,0,1-.3-.77l-.1-4.07a1.09,1.09,0,0,0-1.1-1.13H87.52a1.14,1.14,0,0,0-1.13,1.11l.07,5.38a1.07,1.07,0,0,0,1.07,1.11H116.4a1.15,1.15,0,0,0,1.13-1.13v-.16Z" style="opacity:0.1"></path><path d="M117.45,363.14h-31a1.08,1.08,0,0,1,1-.76h28.88A1.1,1.1,0,0,1,117.45,363.14Z" style="fill:#fff;opacity:0.30000000000000004"></path><path d="M117.51,354.68v6.47a1.1,1.1,0,0,1-1.1,1.1H87.53a1.1,1.1,0,0,1-1.11-1.1v-6.47a.93.93,0,0,1,.06-.34,1.08,1.08,0,0,1,1-.76h28.88a1.1,1.1,0,0,1,1,.76A.76.76,0,0,1,117.51,354.68Z" style="fill:#263238"></path><path d="M117.51,354.68v6.47a1.1,1.1,0,0,1-1.1,1.1H87.53a1.1,1.1,0,0,1-1.11-1.1v-6.47a.93.93,0,0,1,.06-.34,1.08,1.08,0,0,1,1-.76h28.88a1.1,1.1,0,0,1,1,.76A.76.76,0,0,1,117.51,354.68Z" style="fill:#fff;opacity:0.5"></path><path d="M115.72,361v-5.89a.37.37,0,0,0-.74,0V361h-1.69v-5.89a.38.38,0,0,0-.75,0V361h-1.68v-5.89a.38.38,0,0,0-.75,0V361h-1.69v-5.89a.37.37,0,0,0-.74,0V361H106v-5.89a.38.38,0,0,0-.75,0V361h-1.68v-5.89a.38.38,0,0,0-.75,0V361h-1.69v-5.89a.37.37,0,0,0-.74,0V361H98.69v-5.89a.38.38,0,0,0-.75,0V361H96.26v-5.89a.38.38,0,0,0-.75,0V361H93.82v-5.88a.37.37,0,0,0-.74,0v5.56a1.09,1.09,0,0,1-.3-.78l-.1-4.06a1.09,1.09,0,0,0-1.1-1.14H87.52a1.14,1.14,0,0,0-1.13,1.11l.07,5.38a1.07,1.07,0,0,0,1.07,1.11H116.4a1.15,1.15,0,0,0,1.13-1.12V361Z" style="opacity:0.1"></path><path d="M117.45,354.34h-31a1.08,1.08,0,0,1,1-.76h28.88A1.1,1.1,0,0,1,117.45,354.34Z" style="fill:#fff;opacity:0.30000000000000004"></path><path d="M115.51,345.87v6.48a1.11,1.11,0,0,1-1.1,1.1H85.52a1.1,1.1,0,0,1-1.1-1.1v-6.48a1,1,0,0,1,.06-.34,1.07,1.07,0,0,1,1-.76h28.89a1.11,1.11,0,0,1,1,.76A.82.82,0,0,1,115.51,345.87Z" style="fill:#263238"></path><path d="M115.51,345.87v6.48a1.11,1.11,0,0,1-1.1,1.1H85.52a1.1,1.1,0,0,1-1.1-1.1v-6.48a1,1,0,0,1,.06-.34,1.07,1.07,0,0,1,1-.76h28.89a1.11,1.11,0,0,1,1,.76A.82.82,0,0,1,115.51,345.87Z" style="fill:#fff;opacity:0.5"></path><path d="M113.72,352.16v-5.89a.37.37,0,0,0-.37-.37.36.36,0,0,0-.37.37v5.89h-1.69v-5.89a.38.38,0,0,0-.75,0v5.89h-1.69v-5.89a.36.36,0,0,0-.37-.37.37.37,0,0,0-.37.37v5.89h-1.69v-5.89a.37.37,0,0,0-.37-.37.36.36,0,0,0-.37.37v5.89H104v-5.89a.38.38,0,0,0-.75,0v5.89h-1.69v-5.89a.36.36,0,0,0-.37-.37.37.37,0,0,0-.37.37v5.89H99.12v-5.89a.37.37,0,0,0-.37-.37.36.36,0,0,0-.37.37v5.89H96.69v-5.89a.38.38,0,0,0-.75,0v5.89H94.25v-5.89a.36.36,0,0,0-.37-.37.37.37,0,0,0-.37.37v5.89H91.82v-5.88a.37.37,0,0,0-.37-.37.36.36,0,0,0-.37.37v5.55a1.06,1.06,0,0,1-.3-.77l-.1-4.07a1.09,1.09,0,0,0-1.1-1.13H85.52A1.14,1.14,0,0,0,84.39,347l.06,5.38a1.08,1.08,0,0,0,1.08,1.11H114.4a1.16,1.16,0,0,0,1.13-1.13v-.16Z" style="opacity:0.1"></path><path d="M115.45,345.53h-31a1.07,1.07,0,0,1,1-.76h28.89A1.11,1.11,0,0,1,115.45,345.53Z" style="fill:#fff;opacity:0.30000000000000004"></path><path d="M117.51,337.07v6.47a1.11,1.11,0,0,1-1.1,1.11H87.53a1.11,1.11,0,0,1-1.11-1.11v-6.47a.93.93,0,0,1,.06-.34,1.08,1.08,0,0,1,1-.76h28.88a1.1,1.1,0,0,1,1,.76A.76.76,0,0,1,117.51,337.07Z" style="fill:#263238"></path><path d="M117.51,337.07v6.47a1.11,1.11,0,0,1-1.1,1.11H87.53a1.11,1.11,0,0,1-1.11-1.11v-6.47a.93.93,0,0,1,.06-.34,1.08,1.08,0,0,1,1-.76h28.88a1.1,1.1,0,0,1,1,.76A.76.76,0,0,1,117.51,337.07Z" style="fill:#fff;opacity:0.5"></path><path d="M115.72,343.35v-5.88a.37.37,0,1,0-.74,0v5.88h-1.69v-5.88a.38.38,0,1,0-.75,0v5.88h-1.68v-5.88a.38.38,0,1,0-.75,0v5.88h-1.69v-5.88a.37.37,0,1,0-.74,0v5.88H106v-5.88a.38.38,0,1,0-.75,0v5.88h-1.68v-5.88a.38.38,0,1,0-.75,0v5.88h-1.69v-5.88a.37.37,0,1,0-.74,0v5.88H98.69v-5.88a.38.38,0,1,0-.75,0v5.88H96.26v-5.88a.38.38,0,1,0-.75,0v5.88H93.82v-5.88a.37.37,0,1,0-.74,0V343a1.09,1.09,0,0,1-.3-.78l-.1-4.06a1.09,1.09,0,0,0-1.1-1.14H87.52a1.14,1.14,0,0,0-1.13,1.11l.07,5.38a1.07,1.07,0,0,0,1.07,1.11H116.4a1.15,1.15,0,0,0,1.13-1.12v-.17Z" style="opacity:0.1"></path><path d="M117.45,336.73h-31a1.08,1.08,0,0,1,1-.76h28.88A1.1,1.1,0,0,1,117.45,336.73Z" style="fill:#fff;opacity:0.30000000000000004"></path><path d="M119,319.06l2.06,6.13a1.12,1.12,0,0,1-.7,1.4L93,335.75a1.11,1.11,0,0,1-1.4-.7l-2-6.13a.85.85,0,0,1,0-.35,1.08,1.08,0,0,1,.74-1.05l27.4-9.16a1.11,1.11,0,0,1,1.23.39A.76.76,0,0,1,119,319.06Z" style="fill:#263238"></path><path d="M119,319.06l2.06,6.13a1.12,1.12,0,0,1-.7,1.4L93,335.75a1.11,1.11,0,0,1-1.4-.7l-2-6.13a.85.85,0,0,1,0-.35,1.08,1.08,0,0,1,.74-1.05l27.4-9.16a1.11,1.11,0,0,1,1.23.39A.76.76,0,0,1,119,319.06Z" style="fill:#fff;opacity:0.5"></path><path d="M119.34,325.58,117.47,320a.37.37,0,0,0-.47-.24.38.38,0,0,0-.24.47l1.87,5.59-1.6.53-1.87-5.58a.37.37,0,0,0-.47-.24.38.38,0,0,0-.23.48l1.86,5.58-1.6.53-1.87-5.58a.37.37,0,0,0-.7.24l1.87,5.58-1.61.54-1.86-5.59a.37.37,0,0,0-.71.24l1.87,5.58-1.6.54-1.87-5.59a.37.37,0,0,0-.47-.23.38.38,0,0,0-.24.47l1.87,5.59-1.6.53-1.87-5.58a.37.37,0,0,0-.47-.24.36.36,0,0,0-.23.47l1.86,5.59-1.6.53-1.87-5.58a.37.37,0,1,0-.7.23l1.86,5.59-1.6.53-1.86-5.58a.37.37,0,0,0-.47-.23.36.36,0,0,0-.24.47l1.87,5.58-1.6.54L99,326.17a.37.37,0,0,0-.71.24l1.87,5.58-1.57.53h0l-1.87-5.58a.36.36,0,0,0-.47-.23.37.37,0,0,0-.24.47l1.77,5.26a1,1,0,0,1-.53-.64L95.85,328a1.1,1.1,0,0,0-1.4-.73l-3.86,1.29a1.14,1.14,0,0,0-.72,1.41L91.64,335a1.08,1.08,0,0,0,1.37.72l27.38-9.16a1.16,1.16,0,0,0,.72-1.43l0-.15Z" style="opacity:0.1"></path><path d="M118.88,318.75l-29.37,9.82a1.08,1.08,0,0,1,.74-1.05l27.4-9.16A1.11,1.11,0,0,1,118.88,318.75Z" style="fill:#fff;opacity:0.30000000000000004"></path><path d="M155.53,407.51V414a1.1,1.1,0,0,1-1.1,1.1H125.55a1.1,1.1,0,0,1-1.1-1.1v-6.47a.83.83,0,0,1,.06-.35,1.08,1.08,0,0,1,1-.76h28.88a1.12,1.12,0,0,1,1,.76A1,1,0,0,1,155.53,407.51Z" style="fill:#263238"></path><path d="M155.53,407.51V414a1.1,1.1,0,0,1-1.1,1.1H125.55a1.1,1.1,0,0,1-1.1-1.1v-6.47a.83.83,0,0,1,.06-.35,1.08,1.08,0,0,1,1-.76h28.88a1.12,1.12,0,0,1,1,.76A1,1,0,0,1,155.53,407.51Z" style="fill:#fff;opacity:0.5"></path><path d="M153.74,413.79V407.9a.37.37,0,0,0-.37-.37.38.38,0,0,0-.37.37v5.89h-1.69V407.9a.38.38,0,0,0-.37-.37.37.37,0,0,0-.37.37v5.89h-1.69V407.9a.38.38,0,0,0-.75,0v5.89h-1.69V407.9a.37.37,0,0,0-.37-.37.38.38,0,0,0-.37.37v5.89H144V407.9a.38.38,0,0,0-.37-.37.37.37,0,0,0-.37.37v5.89h-1.69V407.9a.38.38,0,0,0-.75,0v5.89h-1.68V407.9a.38.38,0,0,0-.75,0v5.89h-1.69V407.9a.38.38,0,0,0-.37-.37.37.37,0,0,0-.37.37v5.89h-1.69V407.9a.38.38,0,0,0-.75,0v5.89h-1.68V407.9a.38.38,0,0,0-.75,0v5.55a1.11,1.11,0,0,1-.3-.77l-.09-4.07a1.1,1.1,0,0,0-1.1-1.13h-4.07a1.15,1.15,0,0,0-1.13,1.11l.07,5.38a1.07,1.07,0,0,0,1.07,1.11h28.87a1.15,1.15,0,0,0,1.13-1.13v-.16Z" style="opacity:0.1"></path><path d="M155.48,407.16h-31a1.08,1.08,0,0,1,1-.76h28.88A1.12,1.12,0,0,1,155.48,407.16Z" style="fill:#fff;opacity:0.30000000000000004"></path><path d="M153.53,398.7v6.47a1.11,1.11,0,0,1-1.1,1.11H123.55a1.11,1.11,0,0,1-1.11-1.11V398.7a.93.93,0,0,1,.06-.34,1.09,1.09,0,0,1,1-.76h28.88a1.09,1.09,0,0,1,1,.76A.76.76,0,0,1,153.53,398.7Z" style="fill:#263238"></path><path d="M153.53,398.7v6.47a1.11,1.11,0,0,1-1.1,1.11H123.55a1.11,1.11,0,0,1-1.11-1.11V398.7a.93.93,0,0,1,.06-.34,1.09,1.09,0,0,1,1-.76h28.88a1.09,1.09,0,0,1,1,.76A.76.76,0,0,1,153.53,398.7Z" style="fill:#fff;opacity:0.5"></path><path d="M151.74,405V399.1a.37.37,0,1,0-.74,0V405h-1.69V399.1a.38.38,0,1,0-.75,0V405h-1.68V399.1a.38.38,0,1,0-.75,0V405h-1.69V399.1a.37.37,0,1,0-.74,0V405H142V399.1a.38.38,0,1,0-.75,0V405h-1.68V399.1a.38.38,0,1,0-.75,0V405h-1.69V399.1a.37.37,0,1,0-.74,0V405h-1.69V399.1a.38.38,0,0,0-.37-.38.37.37,0,0,0-.37.38V405h-1.69V399.1a.38.38,0,1,0-.75,0V405h-1.69V399.1a.37.37,0,0,0-.37-.38.38.38,0,0,0-.37.38v5.55a1.09,1.09,0,0,1-.3-.78l-.1-4.06a1.09,1.09,0,0,0-1.09-1.14h-4.07a1.14,1.14,0,0,0-1.13,1.11l.07,5.38a1.07,1.07,0,0,0,1.07,1.11h28.87a1.15,1.15,0,0,0,1.13-1.12V405Z" style="opacity:0.1"></path><path d="M153.47,398.36h-31a1.09,1.09,0,0,1,1-.76h28.88A1.09,1.09,0,0,1,153.47,398.36Z" style="fill:#fff;opacity:0.30000000000000004"></path><path d="M155.53,389.9v6.47a1.1,1.1,0,0,1-1.1,1.1H125.55a1.1,1.1,0,0,1-1.1-1.1V389.9a.83.83,0,0,1,.06-.35,1.08,1.08,0,0,1,1-.76h28.88a1.12,1.12,0,0,1,1,.76A1,1,0,0,1,155.53,389.9Z" style="fill:#263238"></path><path d="M155.53,389.9v6.47a1.1,1.1,0,0,1-1.1,1.1H125.55a1.1,1.1,0,0,1-1.1-1.1V389.9a.83.83,0,0,1,.06-.35,1.08,1.08,0,0,1,1-.76h28.88a1.12,1.12,0,0,1,1,.76A1,1,0,0,1,155.53,389.9Z" style="fill:#fff;opacity:0.5"></path><path d="M153.74,396.18v-5.89a.37.37,0,0,0-.37-.37.38.38,0,0,0-.37.37v5.89h-1.69v-5.89a.38.38,0,0,0-.37-.37.37.37,0,0,0-.37.37v5.89h-1.69v-5.89a.38.38,0,0,0-.75,0v5.89h-1.69v-5.89a.37.37,0,0,0-.37-.37.38.38,0,0,0-.37.37v5.89H144v-5.89a.38.38,0,0,0-.37-.37.37.37,0,0,0-.37.37v5.89h-1.69v-5.89a.38.38,0,0,0-.75,0v5.89h-1.68v-5.89a.38.38,0,0,0-.75,0v5.89h-1.69v-5.89a.38.38,0,0,0-.37-.37.37.37,0,0,0-.37.37v5.89h-1.69v-5.89a.38.38,0,0,0-.75,0v5.89h-1.68v-5.88a.38.38,0,0,0-.75,0v5.55a1.11,1.11,0,0,1-.3-.77l-.09-4.07a1.1,1.1,0,0,0-1.1-1.13h-4.07a1.15,1.15,0,0,0-1.13,1.11l.07,5.38a1.07,1.07,0,0,0,1.07,1.11h28.87a1.15,1.15,0,0,0,1.13-1.13v-.16Z" style="opacity:0.1"></path><path d="M155.48,389.55h-31a1.08,1.08,0,0,1,1-.76h28.88A1.12,1.12,0,0,1,155.48,389.55Z" style="fill:#fff;opacity:0.30000000000000004"></path><path d="M153.53,381.09v6.47a1.11,1.11,0,0,1-1.1,1.11H123.55a1.11,1.11,0,0,1-1.11-1.11v-6.47a.93.93,0,0,1,.06-.34,1.09,1.09,0,0,1,1-.76h28.88a1.09,1.09,0,0,1,1,.76A.76.76,0,0,1,153.53,381.09Z" style="fill:#263238"></path><path d="M153.53,381.09v6.47a1.11,1.11,0,0,1-1.1,1.11H123.55a1.11,1.11,0,0,1-1.11-1.11v-6.47a.93.93,0,0,1,.06-.34,1.09,1.09,0,0,1,1-.76h28.88a1.09,1.09,0,0,1,1,.76A.76.76,0,0,1,153.53,381.09Z" style="fill:#fff;opacity:0.5"></path><path d="M151.74,387.37v-5.88a.37.37,0,1,0-.74,0v5.88h-1.69v-5.88a.38.38,0,1,0-.75,0v5.88h-1.68v-5.88a.38.38,0,1,0-.75,0v5.88h-1.69v-5.88a.37.37,0,1,0-.74,0v5.88H142v-5.88a.38.38,0,1,0-.75,0v5.88h-1.68v-5.88a.38.38,0,1,0-.75,0v5.88h-1.69v-5.88a.37.37,0,1,0-.74,0v5.88h-1.69v-5.88a.38.38,0,0,0-.37-.38.37.37,0,0,0-.37.38v5.88h-1.69v-5.88a.38.38,0,1,0-.75,0v5.88h-1.69v-5.88a.37.37,0,0,0-.37-.38.38.38,0,0,0-.37.38V387a1.07,1.07,0,0,1-.3-.78l-.1-4.06a1.08,1.08,0,0,0-1.09-1.13h-4.07a1.14,1.14,0,0,0-1.13,1.11l.07,5.38a1.07,1.07,0,0,0,1.07,1.11h28.87a1.15,1.15,0,0,0,1.13-1.13v-.17Z" style="opacity:0.1"></path><path d="M153.47,380.75h-31a1.09,1.09,0,0,1,1-.76h28.88A1.09,1.09,0,0,1,153.47,380.75Z" style="fill:#fff;opacity:0.30000000000000004"></path><path d="M158.54,372.29v6.47a1.11,1.11,0,0,1-1.11,1.1H128.55a1.1,1.1,0,0,1-1.1-1.1v-6.47a.83.83,0,0,1,.06-.35,1.08,1.08,0,0,1,1-.76h28.88a1.12,1.12,0,0,1,1,.76A1,1,0,0,1,158.54,372.29Z" style="fill:#263238"></path><path d="M158.54,372.29v6.47a1.11,1.11,0,0,1-1.11,1.1H128.55a1.1,1.1,0,0,1-1.1-1.1v-6.47a.83.83,0,0,1,.06-.35,1.08,1.08,0,0,1,1-.76h28.88a1.12,1.12,0,0,1,1,.76A1,1,0,0,1,158.54,372.29Z" style="fill:#fff;opacity:0.5"></path><path d="M156.75,378.57v-5.89a.38.38,0,0,0-.75,0v5.89h-1.69v-5.89a.37.37,0,0,0-.74,0v5.89h-1.69v-5.89a.38.38,0,0,0-.75,0v5.89h-1.68v-5.89a.38.38,0,0,0-.75,0v5.89H147v-5.89a.37.37,0,1,0-.74,0v5.89h-1.69v-5.89a.38.38,0,0,0-.75,0v5.89h-1.68v-5.89a.38.38,0,0,0-.75,0v5.89h-1.69v-5.89a.37.37,0,0,0-.74,0v5.89h-1.69v-5.89a.38.38,0,0,0-.75,0v5.89h-1.68v-5.88a.38.38,0,0,0-.75,0v5.55a1.11,1.11,0,0,1-.3-.77l-.09-4.06a1.11,1.11,0,0,0-1.1-1.14h-4.06a1.14,1.14,0,0,0-1.13,1.11l.06,5.38a1.08,1.08,0,0,0,1.08,1.11h28.86a1.16,1.16,0,0,0,1.14-1.12v-.17Z" style="opacity:0.1"></path><path d="M158.48,371.94h-31a1.08,1.08,0,0,1,1-.76h28.88A1.12,1.12,0,0,1,158.48,371.94Z" style="fill:#fff;opacity:0.30000000000000004"></path><path d="M155.53,363.48V370a1.11,1.11,0,0,1-1.1,1.11H125.55a1.1,1.1,0,0,1-1.1-1.11v-6.47a.76.76,0,0,1,.06-.34,1.07,1.07,0,0,1,1-.76h28.88a1.11,1.11,0,0,1,1,.76A.93.93,0,0,1,155.53,363.48Z" style="fill:#263238"></path><path d="M155.53,363.48V370a1.11,1.11,0,0,1-1.1,1.11H125.55a1.1,1.1,0,0,1-1.1-1.11v-6.47a.76.76,0,0,1,.06-.34,1.07,1.07,0,0,1,1-.76h28.88a1.11,1.11,0,0,1,1,.76A.93.93,0,0,1,155.53,363.48Z" style="fill:#fff;opacity:0.5"></path><path d="M153.74,369.77v-5.89a.36.36,0,0,0-.37-.37.37.37,0,0,0-.37.37v5.89h-1.69v-5.89a.37.37,0,0,0-.37-.37.36.36,0,0,0-.37.37v5.89h-1.69v-5.89a.38.38,0,0,0-.75,0v5.89h-1.69v-5.89a.36.36,0,0,0-.37-.37.37.37,0,0,0-.37.37v5.89H144v-5.89a.37.37,0,0,0-.37-.37.36.36,0,0,0-.37.37v5.89h-1.69v-5.89a.38.38,0,0,0-.75,0v5.89h-1.68v-5.89a.38.38,0,0,0-.75,0v5.89h-1.69v-5.89a.37.37,0,0,0-.37-.37.36.36,0,0,0-.37.37v5.89h-1.69v-5.89a.38.38,0,0,0-.75,0v5.89h-1.68v-5.88a.38.38,0,0,0-.75,0v5.55a1.11,1.11,0,0,1-.3-.77l-.09-4.07a1.1,1.1,0,0,0-1.1-1.13h-4.07a1.14,1.14,0,0,0-1.13,1.11l.07,5.38a1.07,1.07,0,0,0,1.07,1.11h28.87a1.15,1.15,0,0,0,1.13-1.13v-.16Z" style="opacity:0.1"></path><path d="M155.48,363.14h-31a1.07,1.07,0,0,1,1-.76h28.88A1.11,1.11,0,0,1,155.48,363.14Z" style="fill:#fff;opacity:0.30000000000000004"></path><path d="M155.53,354.68v6.47a1.1,1.1,0,0,1-1.1,1.1H125.55a1.1,1.1,0,0,1-1.1-1.1v-6.47a.76.76,0,0,1,.06-.34,1.07,1.07,0,0,1,1-.76h28.88a1.11,1.11,0,0,1,1,.76A.93.93,0,0,1,155.53,354.68Z" style="fill:#263238"></path><path d="M155.53,354.68v6.47a1.1,1.1,0,0,1-1.1,1.1H125.55a1.1,1.1,0,0,1-1.1-1.1v-6.47a.76.76,0,0,1,.06-.34,1.07,1.07,0,0,1,1-.76h28.88a1.11,1.11,0,0,1,1,.76A.93.93,0,0,1,155.53,354.68Z" style="fill:#fff;opacity:0.5"></path><path d="M153.74,361v-5.89a.37.37,0,0,0-.37-.37.38.38,0,0,0-.37.37V361h-1.69v-5.89a.38.38,0,0,0-.37-.37.37.37,0,0,0-.37.37V361h-1.69v-5.89a.38.38,0,0,0-.75,0V361h-1.69v-5.89a.37.37,0,0,0-.37-.37.38.38,0,0,0-.37.37V361H144v-5.89a.38.38,0,0,0-.37-.37.37.37,0,0,0-.37.37V361h-1.69v-5.89a.38.38,0,0,0-.75,0V361h-1.68v-5.89a.38.38,0,0,0-.75,0V361h-1.69v-5.89a.38.38,0,0,0-.37-.37.37.37,0,0,0-.37.37V361h-1.69v-5.89a.38.38,0,0,0-.75,0V361h-1.68v-5.88a.38.38,0,0,0-.75,0v5.56a1.13,1.13,0,0,1-.3-.78l-.09-4.06a1.11,1.11,0,0,0-1.1-1.14h-4.07a1.15,1.15,0,0,0-1.13,1.11l.07,5.38a1.07,1.07,0,0,0,1.07,1.11h28.87a1.15,1.15,0,0,0,1.13-1.12V361Z" style="opacity:0.1"></path><path d="M155.48,354.34h-31a1.07,1.07,0,0,1,1-.76h28.88A1.11,1.11,0,0,1,155.48,354.34Z" style="fill:#fff;opacity:0.30000000000000004"></path><path d="M153.53,345.87v6.48a1.1,1.1,0,0,1-1.1,1.1H123.55a1.11,1.11,0,0,1-1.11-1.1v-6.48a1,1,0,0,1,.06-.34,1.09,1.09,0,0,1,1-.76h28.88a1.09,1.09,0,0,1,1,.76A.82.82,0,0,1,153.53,345.87Z" style="fill:#263238"></path><path d="M153.53,345.87v6.48a1.1,1.1,0,0,1-1.1,1.1H123.55a1.11,1.11,0,0,1-1.11-1.1v-6.48a1,1,0,0,1,.06-.34,1.09,1.09,0,0,1,1-.76h28.88a1.09,1.09,0,0,1,1,.76A.82.82,0,0,1,153.53,345.87Z" style="fill:#fff;opacity:0.5"></path><path d="M151.74,352.16v-5.89a.37.37,0,0,0-.74,0v5.89h-1.69v-5.89a.38.38,0,0,0-.75,0v5.89h-1.68v-5.89a.38.38,0,0,0-.75,0v5.89h-1.69v-5.89a.37.37,0,0,0-.74,0v5.89H142v-5.89a.38.38,0,0,0-.75,0v5.89h-1.68v-5.89a.38.38,0,0,0-.75,0v5.89h-1.69v-5.89a.37.37,0,1,0-.74,0v5.89h-1.69v-5.89a.37.37,0,0,0-.37-.37.36.36,0,0,0-.37.37v5.89h-1.69v-5.89a.38.38,0,0,0-.75,0v5.89h-1.69v-5.88a.36.36,0,0,0-.37-.37.37.37,0,0,0-.37.37v5.55a1.06,1.06,0,0,1-.3-.77l-.1-4.07a1.09,1.09,0,0,0-1.09-1.13h-4.07a1.14,1.14,0,0,0-1.13,1.11l.07,5.38a1.07,1.07,0,0,0,1.07,1.11h28.87a1.15,1.15,0,0,0,1.13-1.13v-.16Z" style="opacity:0.1"></path><path d="M153.47,345.53h-31a1.09,1.09,0,0,1,1-.76h28.88A1.09,1.09,0,0,1,153.47,345.53Z" style="fill:#fff;opacity:0.30000000000000004"></path><path d="M153.53,337.07v6.47a1.11,1.11,0,0,1-1.1,1.11H123.55a1.11,1.11,0,0,1-1.11-1.11v-6.47a.93.93,0,0,1,.06-.34,1.09,1.09,0,0,1,1-.76h28.88a1.09,1.09,0,0,1,1,.76A.76.76,0,0,1,153.53,337.07Z" style="fill:#263238"></path><path d="M153.53,337.07v6.47a1.11,1.11,0,0,1-1.1,1.11H123.55a1.11,1.11,0,0,1-1.11-1.11v-6.47a.93.93,0,0,1,.06-.34,1.09,1.09,0,0,1,1-.76h28.88a1.09,1.09,0,0,1,1,.76A.76.76,0,0,1,153.53,337.07Z" style="fill:#fff;opacity:0.5"></path><path d="M151.74,343.35v-5.88a.37.37,0,1,0-.74,0v5.88h-1.69v-5.88a.38.38,0,1,0-.75,0v5.88h-1.68v-5.88a.38.38,0,1,0-.75,0v5.88h-1.69v-5.88a.37.37,0,1,0-.74,0v5.88H142v-5.88a.38.38,0,1,0-.75,0v5.88h-1.68v-5.88a.38.38,0,1,0-.75,0v5.88h-1.69v-5.88a.37.37,0,1,0-.74,0v5.88h-1.69v-5.88a.38.38,0,0,0-.37-.38.37.37,0,0,0-.37.38v5.88h-1.69v-5.88a.38.38,0,1,0-.75,0v5.88h-1.69v-5.88a.37.37,0,0,0-.37-.38.38.38,0,0,0-.37.38V343a1.09,1.09,0,0,1-.3-.78l-.1-4.06a1.09,1.09,0,0,0-1.09-1.14h-4.07a1.14,1.14,0,0,0-1.13,1.11l.07,5.38a1.07,1.07,0,0,0,1.07,1.11h28.87a1.15,1.15,0,0,0,1.13-1.12v-.17Z" style="opacity:0.1"></path><path d="M153.47,336.73h-31a1.09,1.09,0,0,1,1-.76h28.88A1.09,1.09,0,0,1,153.47,336.73Z" style="fill:#fff;opacity:0.30000000000000004"></path><path d="M149.53,328.27v6.47a1.11,1.11,0,0,1-1.1,1.1H119.55a1.1,1.1,0,0,1-1.11-1.1v-6.47a1,1,0,0,1,.06-.35,1.09,1.09,0,0,1,1-.76h28.88a1.11,1.11,0,0,1,1,.76A.83.83,0,0,1,149.53,328.27Z" style="fill:#263238"></path><path d="M149.53,328.27v6.47a1.11,1.11,0,0,1-1.1,1.1H119.55a1.1,1.1,0,0,1-1.11-1.1v-6.47a1,1,0,0,1,.06-.35,1.09,1.09,0,0,1,1-.76h28.88a1.11,1.11,0,0,1,1,.76A.83.83,0,0,1,149.53,328.27Z" style="fill:#fff;opacity:0.5"></path><path d="M147.74,334.55v-5.89a.38.38,0,0,0-.37-.37.37.37,0,0,0-.37.37v5.89h-1.69v-5.89a.38.38,0,0,0-.75,0v5.89h-1.69v-5.89a.37.37,0,0,0-.37-.37.38.38,0,0,0-.37.37v5.89h-1.69v-5.89a.38.38,0,0,0-.37-.37.37.37,0,0,0-.37.37v5.89H138v-5.89a.38.38,0,0,0-.75,0v5.89h-1.69v-5.89a.37.37,0,0,0-.37-.37.38.38,0,0,0-.37.37v5.89h-1.69v-5.89a.38.38,0,0,0-.37-.37.37.37,0,0,0-.37.37v5.89h-1.69v-5.89a.38.38,0,0,0-.75,0v5.89h-1.69v-5.89a.37.37,0,0,0-.37-.37.38.38,0,0,0-.37.37v5.89h-1.69v-5.88a.38.38,0,0,0-.37-.37.37.37,0,0,0-.37.37v5.55a1.06,1.06,0,0,1-.3-.77l-.1-4.07a1.09,1.09,0,0,0-1.1-1.13h-4.06a1.14,1.14,0,0,0-1.13,1.11l.07,5.38a1.07,1.07,0,0,0,1.07,1.11h28.87a1.16,1.16,0,0,0,1.13-1.13v-.16Z" style="opacity:0.1"></path><path d="M149.47,327.92h-31a1.09,1.09,0,0,1,1-.76h28.88A1.11,1.11,0,0,1,149.47,327.92Z" style="fill:#fff;opacity:0.30000000000000004"></path><path d="M155.53,319.46v6.47a1.11,1.11,0,0,1-1.1,1.11H125.55a1.11,1.11,0,0,1-1.1-1.11v-6.47a.76.76,0,0,1,.06-.34,1.07,1.07,0,0,1,1-.76h28.88a1.11,1.11,0,0,1,1,.76A.93.93,0,0,1,155.53,319.46Z" style="fill:#263238"></path><path d="M155.53,319.46v6.47a1.11,1.11,0,0,1-1.1,1.11H125.55a1.11,1.11,0,0,1-1.1-1.11v-6.47a.76.76,0,0,1,.06-.34,1.07,1.07,0,0,1,1-.76h28.88a1.11,1.11,0,0,1,1,.76A.93.93,0,0,1,155.53,319.46Z" style="fill:#fff;opacity:0.5"></path><path d="M153.74,325.74v-5.88a.37.37,0,0,0-.37-.38.38.38,0,0,0-.37.38v5.88h-1.69v-5.88a.38.38,0,0,0-.37-.38.37.37,0,0,0-.37.38v5.88h-1.69v-5.88a.38.38,0,1,0-.75,0v5.88h-1.69v-5.88a.37.37,0,0,0-.37-.38.38.38,0,0,0-.37.38v5.88H144v-5.88a.38.38,0,0,0-.37-.38.37.37,0,0,0-.37.38v5.88h-1.69v-5.88a.38.38,0,1,0-.75,0v5.88h-1.68v-5.88a.38.38,0,1,0-.75,0v5.88h-1.69v-5.88a.38.38,0,0,0-.37-.38.37.37,0,0,0-.37.38v5.88h-1.69v-5.88a.38.38,0,1,0-.75,0v5.88h-1.68v-5.88a.38.38,0,1,0-.75,0v5.55a1.11,1.11,0,0,1-.3-.78l-.09-4.06a1.11,1.11,0,0,0-1.1-1.14h-4.07a1.15,1.15,0,0,0-1.13,1.11l.07,5.38a1.07,1.07,0,0,0,1.07,1.11h28.87a1.15,1.15,0,0,0,1.13-1.12v-.17Z" style="opacity:0.1"></path><path d="M155.48,319.12h-31a1.07,1.07,0,0,1,1-.76h28.88A1.11,1.11,0,0,1,155.48,319.12Z" style="fill:#fff;opacity:0.30000000000000004"></path><path d="M195.56,407.51V414a1.11,1.11,0,0,1-1.1,1.1H165.57a1.1,1.1,0,0,1-1.1-1.1v-6.47a.83.83,0,0,1,.06-.35,1.08,1.08,0,0,1,1-.76h28.89a1.12,1.12,0,0,1,1,.76A1,1,0,0,1,195.56,407.51Z" style="fill:#263238"></path><path d="M195.56,407.51V414a1.11,1.11,0,0,1-1.1,1.1H165.57a1.1,1.1,0,0,1-1.1-1.1v-6.47a.83.83,0,0,1,.06-.35,1.08,1.08,0,0,1,1-.76h28.89a1.12,1.12,0,0,1,1,.76A1,1,0,0,1,195.56,407.51Z" style="fill:#fff;opacity:0.5"></path><path d="M193.77,413.79V407.9a.38.38,0,0,0-.75,0v5.89h-1.68V407.9a.38.38,0,0,0-.75,0v5.89H188.9V407.9a.37.37,0,0,0-.74,0v5.89h-1.69V407.9a.38.38,0,0,0-.75,0v5.89H184V407.9a.38.38,0,0,0-.75,0v5.89H181.6V407.9a.37.37,0,1,0-.74,0v5.89h-1.69V407.9a.38.38,0,0,0-.75,0v5.89h-1.68V407.9a.38.38,0,0,0-.75,0v5.89H174.3V407.9a.37.37,0,0,0-.74,0v5.89h-1.69V407.9a.38.38,0,0,0-.75,0v5.55a1.06,1.06,0,0,1-.29-.77l-.1-4.07a1.1,1.1,0,0,0-1.1-1.13h-4.06a1.14,1.14,0,0,0-1.13,1.11l.06,5.38a1.08,1.08,0,0,0,1.08,1.11h28.87a1.16,1.16,0,0,0,1.13-1.13v-.16Z" style="opacity:0.1"></path><path d="M195.5,407.16h-31a1.08,1.08,0,0,1,1-.76h28.89A1.12,1.12,0,0,1,195.5,407.16Z" style="fill:#fff;opacity:0.30000000000000004"></path><path d="M193.56,398.7v6.47a1.12,1.12,0,0,1-1.11,1.11H163.57a1.11,1.11,0,0,1-1.1-1.11V398.7a.76.76,0,0,1,.06-.34,1.07,1.07,0,0,1,1-.76h28.88a1.11,1.11,0,0,1,1.05.76A.93.93,0,0,1,193.56,398.7Z" style="fill:#263238"></path><path d="M193.56,398.7v6.47a1.12,1.12,0,0,1-1.11,1.11H163.57a1.11,1.11,0,0,1-1.1-1.11V398.7a.76.76,0,0,1,.06-.34,1.07,1.07,0,0,1,1-.76h28.88a1.11,1.11,0,0,1,1.05.76A.93.93,0,0,1,193.56,398.7Z" style="fill:#fff;opacity:0.5"></path><path d="M191.77,405V399.1a.38.38,0,1,0-.75,0V405h-1.69V399.1a.37.37,0,0,0-.37-.38.38.38,0,0,0-.37.38V405H186.9V399.1a.38.38,0,0,0-.37-.38.37.37,0,0,0-.37.38V405h-1.69V399.1a.38.38,0,1,0-.75,0V405H182V399.1a.37.37,0,0,0-.37-.38.38.38,0,0,0-.37.38V405H179.6V399.1a.38.38,0,0,0-.37-.38.37.37,0,0,0-.37.38V405h-1.69V399.1a.38.38,0,1,0-.75,0V405h-1.69V399.1a.37.37,0,0,0-.37-.38.38.38,0,0,0-.37.38V405H172.3V399.1a.38.38,0,0,0-.37-.38.37.37,0,0,0-.37.38V405h-1.69V399.1a.38.38,0,1,0-.75,0v5.55a1.08,1.08,0,0,1-.29-.78l-.1-4.06a1.11,1.11,0,0,0-1.1-1.14h-4.06a1.14,1.14,0,0,0-1.13,1.11l.06,5.38a1.08,1.08,0,0,0,1.08,1.11h28.87a1.15,1.15,0,0,0,1.13-1.12V405Z" style="opacity:0.1"></path><path d="M193.5,398.36h-31a1.07,1.07,0,0,1,1-.76h28.88A1.11,1.11,0,0,1,193.5,398.36Z" style="fill:#fff;opacity:0.30000000000000004"></path><path d="M193.56,389.9v6.47a1.11,1.11,0,0,1-1.11,1.1H163.57a1.1,1.1,0,0,1-1.1-1.1V389.9a.83.83,0,0,1,.06-.35,1.08,1.08,0,0,1,1-.76h28.88a1.12,1.12,0,0,1,1.05.76A1,1,0,0,1,193.56,389.9Z" style="fill:#263238"></path><path d="M193.56,389.9v6.47a1.11,1.11,0,0,1-1.11,1.1H163.57a1.1,1.1,0,0,1-1.1-1.1V389.9a.83.83,0,0,1,.06-.35,1.08,1.08,0,0,1,1-.76h28.88a1.12,1.12,0,0,1,1.05.76A1,1,0,0,1,193.56,389.9Z" style="fill:#fff;opacity:0.5"></path><path d="M191.77,396.18v-5.89a.38.38,0,0,0-.75,0v5.89h-1.69v-5.89a.37.37,0,0,0-.37-.37.38.38,0,0,0-.37.37v5.89H186.9v-5.89a.38.38,0,0,0-.37-.37.37.37,0,0,0-.37.37v5.89h-1.69v-5.89a.38.38,0,0,0-.75,0v5.89H182v-5.89a.37.37,0,0,0-.37-.37.38.38,0,0,0-.37.37v5.89H179.6v-5.89a.38.38,0,0,0-.37-.37.37.37,0,0,0-.37.37v5.89h-1.69v-5.89a.38.38,0,0,0-.75,0v5.89h-1.69v-5.89a.37.37,0,0,0-.37-.37.38.38,0,0,0-.37.37v5.89H172.3v-5.89a.38.38,0,0,0-.37-.37.37.37,0,0,0-.37.37v5.89h-1.69v-5.88a.38.38,0,0,0-.75,0v5.55a1.06,1.06,0,0,1-.29-.77l-.1-4.07a1.1,1.1,0,0,0-1.1-1.13h-4.06a1.14,1.14,0,0,0-1.13,1.11l.06,5.38a1.08,1.08,0,0,0,1.08,1.11h28.87a1.16,1.16,0,0,0,1.13-1.13v-.16Z" style="opacity:0.1"></path><path d="M193.5,389.55h-31a1.08,1.08,0,0,1,1-.76h28.88A1.12,1.12,0,0,1,193.5,389.55Z" style="fill:#fff;opacity:0.30000000000000004"></path><circle cx="122.92" cy="399.56" r="15.52" transform="translate(-57.74 22.57) rotate(-8.51)" style="fill:#263238"></circle><circle cx="122.92" cy="399.56" r="15.52" transform="translate(-57.74 22.57) rotate(-8.51)" style="fill:#fff;opacity:0.30000000000000004"></circle><path d="M123.44,403.94c.58-.78.15-1.67-.61-2.66l-2.1,2.84C122,404.81,122.93,404.63,123.44,403.94Z" style="fill:#fff;opacity:0.30000000000000004"></path><path d="M122.61,395.44c-.57.77-.14,1.63.59,2.59l2.11-2.86C124,394.51,123.13,394.73,122.61,395.44Z" style="fill:#fff;opacity:0.30000000000000004"></path><path d="M133.57,407.44A13.25,13.25,0,1,0,115,410.21,13.24,13.24,0,0,0,133.57,407.44Zm-16.78-.75,1.32-1.78a8.69,8.69,0,0,1-3-4.24l1.92-1.08a7.62,7.62,0,0,0,2.31,3.59l2.37-3.21c-1.46-1.75-2.94-3.74-1.29-6,1.21-1.64,3.45-2.18,6.13-.57l1.34-1.82,1.32,1-1.32,1.78a8.47,8.47,0,0,1,2.53,3.39l-1.85,1.13a8.23,8.23,0,0,0-2-2.79l-2.4,3.24c1.46,1.75,3,3.75,1.34,6-1.21,1.63-3.46,2.16-6.17.55l-1.33,1.8Z" style="fill:#fff;opacity:0.30000000000000004"></path></g><g id="freepik--Lines--inject-62"><rect x="218.37" y="165.51" width="1" height="128.55" transform="translate(-0.24 0.23) rotate(-0.06)" style="fill:#2563EB"></rect><path d="M407.09,180.73h0l-94.79-8L218.77,166a.5.5,0,0,1-.19-.94l89.75-45.89a.5.5,0,0,1,.49,0l98.53,60.6a.48.48,0,0,1,.21.58A.49.49,0,0,1,407.09,180.73ZM220.63,165.14l91.71,6.58,92.7,7.83-96.5-59.35Z" style="fill:#2563EB"></path><polygon points="393.88 329.88 393.02 329.43 246.8 251.56 246.73 251.38 218.33 165.67 219.28 165.36 247.62 250.87 392.63 328.08 379.37 229.91 311.82 172.47 311.8 172.26 308.06 119.67 309.06 119.59 312.78 171.97 380.31 229.39 380.33 229.58 393.88 329.88" style="fill:#2563EB"></polygon><path d="M393.16,329.47,218.84,294.55a.5.5,0,0,1-.32-.76l28.27-42.85a.57.57,0,0,1,.34-.22l132.38-21.53L406.65,180l.88.49-27.26,49.42a.48.48,0,0,1-.36.25L247.5,251.68l-27.74,42,173.59,34.77Z" style="fill:#2563EB"></path><rect x="228.27" y="211.09" width="102.76" height="1" transform="translate(-61.54 292.59) rotate(-50.47)" style="fill:#2563EB"></rect><g style="opacity:0.4"><rect x="218.37" y="165.51" width="1" height="128.55" transform="translate(-0.24 0.23) rotate(-0.06)" style="fill:#fff"></rect><path d="M407.09,180.73h0l-94.79-8L218.77,166a.5.5,0,0,1-.19-.94l89.75-45.89a.5.5,0,0,1,.49,0l98.53,60.6a.48.48,0,0,1,.21.58A.49.49,0,0,1,407.09,180.73ZM220.63,165.14l91.71,6.58,92.7,7.83-96.5-59.35Z" style="fill:#fff"></path><polygon points="393.88 329.88 393.02 329.43 246.8 251.56 246.73 251.38 218.33 165.67 219.28 165.36 247.62 250.87 392.63 328.08 379.37 229.91 311.82 172.47 311.8 172.26 308.06 119.67 309.06 119.59 312.78 171.97 380.31 229.39 380.33 229.58 393.88 329.88" style="fill:#fff"></polygon><path d="M393.16,329.47,218.84,294.55a.5.5,0,0,1-.32-.76l28.27-42.85a.57.57,0,0,1,.34-.22l132.38-21.53L406.65,180l.88.49-27.26,49.42a.48.48,0,0,1-.36.25L247.5,251.68l-27.74,42,173.59,34.77Z" style="fill:#fff"></path><rect x="228.27" y="211.09" width="102.76" height="1" transform="translate(-61.54 292.59) rotate(-50.47)" style="fill:#fff"></rect></g><path d="M248.9,251.22a2,2,0,1,1-2-2A2,2,0,0,1,248.9,251.22Z" style="fill:#2563EB"></path><circle cx="312.35" cy="171.96" r="1.96" style="fill:#2563EB"></circle><circle cx="379.55" cy="229.86" r="1.96" style="fill:#2563EB"></circle></g><g id="freepik--Elements--inject-62"><polygon points="405.44 318.79 405.44 348.87 377.07 348.87 377.07 312.1 398.76 312.1 405.44 318.79" style="fill:#2563EB"></polygon><polygon points="409.44 315.79 409.44 345.87 381.07 345.87 381.07 309.1 402.76 309.1 409.44 315.79" style="fill:#2563EB"></polygon><polygon points="409.44 315.79 409.44 345.87 381.07 345.87 381.07 309.1 402.76 309.1 409.44 315.79" style="fill:#fff;opacity:0.7000000000000001"></polygon><polygon points="409.44 315.79 402.76 315.79 402.76 309.1 409.44 315.79" style="fill:#2563EB"></polygon><polygon points="409.44 315.79 402.76 315.79 402.76 309.1 409.44 315.79" style="fill:#fff;opacity:0.4"></polygon><g style="opacity:0.2"><rect x="386.88" y="318.05" width="16.75" height="1"></rect><rect x="386.88" y="322.52" width="16.75" height="1"></rect><rect x="386.88" y="326.98" width="16.75" height="1"></rect><rect x="386.88" y="331.45" width="16.75" height="1"></rect><rect x="386.88" y="335.92" width="12.75" height="1"></rect></g><rect x="388.21" y="165.4" width="37.76" height="29.66" rx="5.62" style="fill:#2563EB"></rect><polygon points="398.87 173.92 398.87 186.53 415.31 180.22 398.87 173.92" style="fill:#fff"></polygon><rect x="292.06" y="103.13" width="32.99" height="32.99" style="fill:#2563EB"></rect><rect x="292.06" y="103.13" width="32.99" height="32.99" style="fill:#fff;opacity:0.7000000000000001"></rect><path d="M314,112.81l-3.9-2-1.51-.8V124.8a4.38,4.38,0,0,0-1.93-.42c-1.9,0-3.44,1.1-3.44,2.46s1.54,2.46,3.44,2.46,3.44-1.1,3.45-2.46h0V114.9l3.9,1.82Z" style="fill:#2563EB"></path><rect x="196.25" y="147.8" width="45.1" height="35.42" style="fill:#2563EB"></rect><rect x="196.25" y="147.8" width="45.1" height="35.42" style="fill:#fff;opacity:0.7000000000000001"></rect><rect x="204.09" y="145.96" width="29.42" height="39.1" transform="translate(384.32 -53.29) rotate(90)" style="fill:#2563EB"></rect><polygon points="199.25 174.42 210.89 166.4 216.96 171.93 230.93 161.78 238.35 168.1 238.35 180.22 199.25 180.22 199.25 174.42" style="fill:#fff;opacity:0.4"></polygon><path d="M213.13,159.34a3.76,3.76,0,1,1-3.76-3.76A3.76,3.76,0,0,1,213.13,159.34Z" style="fill:#fff"></path><rect x="200.1" y="274.61" width="36.9" height="36.9" style="fill:#2563EB"></rect><rect x="200.1" y="274.61" width="36.9" height="36.9" style="fill:#fff;opacity:0.7000000000000001"></rect><rect x="209.47" y="271.97" width="18.15" height="30.07" transform="translate(505.55 68.46) rotate(90)" style="fill:#2563EB"></rect><polygon points="203.51 293.85 212.46 287.68 217.13 291.94 227.87 284.13 233.58 288.99 233.58 296.08 203.51 296.08 203.51 293.85" style="fill:#fff;opacity:0.4"></polygon><path d="M214.18,282.25a2.89,2.89,0,1,1-2.89-2.89A2.89,2.89,0,0,1,214.18,282.25Z" style="fill:#fff"></path><path d="M215.08,304.11h1.49v3.38a5.41,5.41,0,0,1-3.32,1.08,4.37,4.37,0,1,1,0-8.73,4.42,4.42,0,0,1,3.41,1.38l-1,1a3.16,3.16,0,0,0-2.34-1,3,3,0,1,0,0,6,3.5,3.5,0,0,0,1.75-.44Z" style="fill:#2563EB"></path><path d="M218.64,300h1.57v8.49h-1.57Z" style="fill:#2563EB"></path><path d="M224.07,301.29v2.58h4.1v1.33h-4.1v3.25H222.5V300h6.19v1.33Z" style="fill:#2563EB"></path></g><g id="freepik--Platform--inject-62"><path d="M282.38,225h0a1.44,1.44,0,0,1-1.44-1.44V155.47a1.45,1.45,0,0,1,1.44-1.44h0a1.44,1.44,0,0,1,1.44,1.44v68.07A1.43,1.43,0,0,1,282.38,225Z" style="fill:#2563EB"></path><path d="M282.38,329.72h0a1.45,1.45,0,0,1-1.44-1.44V260.21a1.44,1.44,0,0,1,1.44-1.44h0a1.43,1.43,0,0,1,1.44,1.44v68.07A1.44,1.44,0,0,1,282.38,329.72Z" style="fill:#2563EB"></path><path d="M305.76,206.11h0a1.45,1.45,0,0,1-1.44-1.44V136.6a1.44,1.44,0,0,1,1.44-1.44h0a1.43,1.43,0,0,1,1.44,1.44v68.07A1.44,1.44,0,0,1,305.76,206.11Z" style="fill:#2563EB"></path><path d="M329.88,243.93h0a1.43,1.43,0,0,1-1.44-1.44V174.42a1.44,1.44,0,0,1,1.44-1.44h0a1.45,1.45,0,0,1,1.44,1.44v68.07A1.44,1.44,0,0,1,329.88,243.93Z" style="fill:#2563EB"></path><path d="M346.8,383.22h0a1.44,1.44,0,0,1-1.44-1.44V313.71a1.45,1.45,0,0,1,1.44-1.44h0a1.44,1.44,0,0,1,1.44,1.44v68.07A1.43,1.43,0,0,1,346.8,383.22Z" style="fill:#2563EB"></path><path d="M346.8,289.4h0a1.45,1.45,0,0,1-1.44-1.44v-8a1.45,1.45,0,0,1,1.44-1.44h0a1.44,1.44,0,0,1,1.44,1.44v8A1.44,1.44,0,0,1,346.8,289.4Z" style="fill:#2563EB"></path><path d="M326.44,317.73h0a1.45,1.45,0,0,1-1.44-1.44v-8a1.45,1.45,0,0,1,1.44-1.44h0a1.44,1.44,0,0,1,1.44,1.44v8A1.44,1.44,0,0,1,326.44,317.73Z" style="fill:#2563EB"></path><path d="M305.76,261.13h0a1.45,1.45,0,0,1-1.44-1.44v-8a1.45,1.45,0,0,1,1.44-1.44h0a1.44,1.44,0,0,1,1.44,1.44v8A1.44,1.44,0,0,1,305.76,261.13Z" style="fill:#2563EB"></path><path d="M268.33,192.3h0a1.43,1.43,0,0,1-1.44-1.44v-8a1.43,1.43,0,0,1,1.44-1.44h0a1.43,1.43,0,0,1,1.44,1.44v8A1.43,1.43,0,0,1,268.33,192.3Z" style="fill:#2563EB"></path><path d="M305.76,295.43h0a1.44,1.44,0,0,1-1.44-1.44v-8a1.44,1.44,0,0,1,1.44-1.44h0A1.43,1.43,0,0,1,307.2,286v8A1.43,1.43,0,0,1,305.76,295.43Z" style="fill:#2563EB"></path><path d="M325,372.6h0a1.45,1.45,0,0,1-1.44-1.44v-8a1.45,1.45,0,0,1,1.44-1.44h0a1.44,1.44,0,0,1,1.44,1.44v8A1.44,1.44,0,0,1,325,372.6Z" style="fill:#2563EB"></path><path d="M346.8,222.45h0a1.44,1.44,0,0,1-1.44-1.44V152.94a1.45,1.45,0,0,1,1.44-1.44h0a1.44,1.44,0,0,1,1.44,1.44V221A1.43,1.43,0,0,1,346.8,222.45Z" style="fill:#2563EB"></path><path d="M268.33,388.56h0a1.43,1.43,0,0,1-1.44-1.44V319.06a1.43,1.43,0,0,1,1.44-1.44h0a1.43,1.43,0,0,1,1.44,1.44v68.06A1.43,1.43,0,0,1,268.33,388.56Z" style="fill:#2563EB"></path><path d="M305.76,402.61h0a1.44,1.44,0,0,1-1.44-1.44V333.1a1.45,1.45,0,0,1,1.44-1.44h0a1.44,1.44,0,0,1,1.44,1.44v68.07A1.43,1.43,0,0,1,305.76,402.61Z" style="fill:#2563EB"></path><g style="opacity:0.7000000000000001"><path d="M282.38,225h0a1.44,1.44,0,0,1-1.44-1.44V155.47a1.45,1.45,0,0,1,1.44-1.44h0a1.44,1.44,0,0,1,1.44,1.44v68.07A1.43,1.43,0,0,1,282.38,225Z" style="fill:#fff"></path><path d="M282.38,329.72h0a1.45,1.45,0,0,1-1.44-1.44V260.21a1.44,1.44,0,0,1,1.44-1.44h0a1.43,1.43,0,0,1,1.44,1.44v68.07A1.44,1.44,0,0,1,282.38,329.72Z" style="fill:#fff"></path><path d="M305.76,206.11h0a1.45,1.45,0,0,1-1.44-1.44V136.6a1.44,1.44,0,0,1,1.44-1.44h0a1.43,1.43,0,0,1,1.44,1.44v68.07A1.44,1.44,0,0,1,305.76,206.11Z" style="fill:#fff"></path><path d="M329.88,243.93h0a1.43,1.43,0,0,1-1.44-1.44V174.42a1.44,1.44,0,0,1,1.44-1.44h0a1.45,1.45,0,0,1,1.44,1.44v68.07A1.44,1.44,0,0,1,329.88,243.93Z" style="fill:#fff"></path><path d="M346.8,383.22h0a1.44,1.44,0,0,1-1.44-1.44V313.71a1.45,1.45,0,0,1,1.44-1.44h0a1.44,1.44,0,0,1,1.44,1.44v68.07A1.43,1.43,0,0,1,346.8,383.22Z" style="fill:#fff"></path><path d="M346.8,289.4h0a1.45,1.45,0,0,1-1.44-1.44v-8a1.45,1.45,0,0,1,1.44-1.44h0a1.44,1.44,0,0,1,1.44,1.44v8A1.44,1.44,0,0,1,346.8,289.4Z" style="fill:#fff"></path><path d="M326.44,317.73h0a1.45,1.45,0,0,1-1.44-1.44v-8a1.45,1.45,0,0,1,1.44-1.44h0a1.44,1.44,0,0,1,1.44,1.44v8A1.44,1.44,0,0,1,326.44,317.73Z" style="fill:#fff"></path><path d="M305.76,261.13h0a1.45,1.45,0,0,1-1.44-1.44v-8a1.45,1.45,0,0,1,1.44-1.44h0a1.44,1.44,0,0,1,1.44,1.44v8A1.44,1.44,0,0,1,305.76,261.13Z" style="fill:#fff"></path><path d="M268.33,192.3h0a1.43,1.43,0,0,1-1.44-1.44v-8a1.43,1.43,0,0,1,1.44-1.44h0a1.43,1.43,0,0,1,1.44,1.44v8A1.43,1.43,0,0,1,268.33,192.3Z" style="fill:#fff"></path><path d="M305.76,295.43h0a1.44,1.44,0,0,1-1.44-1.44v-8a1.44,1.44,0,0,1,1.44-1.44h0A1.43,1.43,0,0,1,307.2,286v8A1.43,1.43,0,0,1,305.76,295.43Z" style="fill:#fff"></path><path d="M325,372.6h0a1.45,1.45,0,0,1-1.44-1.44v-8a1.45,1.45,0,0,1,1.44-1.44h0a1.44,1.44,0,0,1,1.44,1.44v8A1.44,1.44,0,0,1,325,372.6Z" style="fill:#fff"></path><path d="M346.8,222.45h0a1.44,1.44,0,0,1-1.44-1.44V152.94a1.45,1.45,0,0,1,1.44-1.44h0a1.44,1.44,0,0,1,1.44,1.44V221A1.43,1.43,0,0,1,346.8,222.45Z" style="fill:#fff"></path><path d="M268.33,388.56h0a1.43,1.43,0,0,1-1.44-1.44V319.06a1.43,1.43,0,0,1,1.44-1.44h0a1.43,1.43,0,0,1,1.44,1.44v68.06A1.43,1.43,0,0,1,268.33,388.56Z" style="fill:#fff"></path><path d="M305.76,402.61h0a1.44,1.44,0,0,1-1.44-1.44V333.1a1.45,1.45,0,0,1,1.44-1.44h0a1.44,1.44,0,0,1,1.44,1.44v68.07A1.43,1.43,0,0,1,305.76,402.61Z" style="fill:#fff"></path></g><path d="M364.47,400.25H250.67A2.16,2.16,0,0,0,249,401l-3.21,3.63a2.17,2.17,0,0,0-.14,2.7H369.45a2.2,2.2,0,0,0-.14-2.7L366.09,401A2.15,2.15,0,0,0,364.47,400.25Z" style="fill:#263238"></path><path d="M364.47,400.25H250.67A2.16,2.16,0,0,0,249,401l-3.21,3.63a2.17,2.17,0,0,0-.14,2.7H369.45a2.2,2.2,0,0,0-.14-2.7L366.09,401A2.15,2.15,0,0,0,364.47,400.25Z" style="fill:#fff;opacity:0.4"></path><polygon points="361.61 395.91 253.52 395.91 251.44 397.73 251.44 404.6 363.69 404.6 363.69 397.73 361.61 395.91" style="fill:#263238"></polygon><polygon points="361.61 395.91 253.52 395.91 251.44 397.73 251.44 404.6 363.69 404.6 363.69 397.73 361.61 395.91" style="fill:#fff;opacity:0.1"></polygon><polygon points="363.73 404.6 251.41 404.6 237.9 410.9 237.9 414.46 377.23 414.46 377.23 410.9 363.73 404.6" style="fill:#263238"></polygon><polygon points="363.73 404.6 251.41 404.6 237.9 410.9 377.23 410.9 363.73 404.6" style="fill:#fff;opacity:0.2"></polygon><polygon points="361.61 395.91 253.52 395.91 251.44 397.73 363.69 397.73 361.61 395.91" style="fill:#fff;opacity:0.2"></polygon><path d="M307.57,407.32h0a1.69,1.69,0,0,1-1.69-1.68v-3.71a1.69,1.69,0,0,1,1.69-1.68h0a1.69,1.69,0,0,1,1.68,1.68v3.71A1.68,1.68,0,0,1,307.57,407.32Z" style="fill:#263238"></path><path d="M307.57,407.32h0a1.69,1.69,0,0,1-1.69-1.68v-3.71a1.69,1.69,0,0,1,1.69-1.68h0a1.69,1.69,0,0,1,1.68,1.68v3.71A1.68,1.68,0,0,1,307.57,407.32Z" style="fill:#fff;opacity:0.4"></path></g><g id="freepik--NFT--inject-62"><ellipse cx="311.55" cy="236.53" rx="45.32" ry="49.55" style="fill:#2563EB"></ellipse><g style="opacity:0.2"><path d="M356.86,236.1v.43c0,.24,0,.46,0,.7,0,.92,0,1.84-.1,2.75,0,.38,0,.76-.09,1.14q-.11,1.4-.3,2.76c0,.39-.1.76-.15,1.14-.15.92-.32,1.84-.52,2.75-.08.37-.16.75-.25,1.13-.22.94-.46,1.86-.72,2.77l-.36,1.13c-.29.93-.61,1.85-.95,2.75-.15.39-.3.76-.46,1.14-.38.94-.78,1.86-1.21,2.76-.18.39-.38.76-.57,1.14-.48.94-1,1.85-1.5,2.75-.23.38-.45.76-.69,1.13-.59.95-1.22,1.87-1.87,2.77-.27.38-.55.76-.85,1.13q-1.1,1.44-2.28,2.76c-.34.39-.7.76-1.05,1.14-.91,1-1.86,1.88-2.85,2.75-.43.39-.88.77-1.33,1.14a41.75,41.75,0,0,1-3.73,2.76c-.59.4-1.19.77-1.8,1.13a42.15,42.15,0,0,1-5.45,2.75c-1,.43-2,.8-3,1.14a41.81,41.81,0,0,1-26.41,0c-1-.34-2-.71-3-1.14-17-7.13-29.09-25.16-29.09-46.27s12-39,28.95-46.22c.79-.33,1.6-.65,2.42-.93a41.77,41.77,0,0,1,27.91,0c1,.34,1.94.72,2.89,1.13a45.32,45.32,0,0,1,5.26,2.75c.6.37,1.18.74,1.76,1.14a42.23,42.23,0,0,1,3.66,2.76c.44.37.87.75,1.3,1.14,1,.87,1.91,1.78,2.81,2.75q.52.55,1,1.14a35.16,35.16,0,0,1,2.25,2.76c.3.37.58.75.86,1.13.63.9,1.25,1.82,1.83,2.76.24.38.46.75.68,1.14.52.9,1,1.81,1.49,2.75.18.38.37.75.55,1.14q.63,1.35,1.2,2.76c.16.37.3.75.44,1.14.34.89.66,1.81.94,2.75.13.37.24.76.34,1.13.27.91.5,1.83.72,2.76.09.38.17.77.25,1.14.18.91.35,1.83.49,2.75.06.38.11.75.16,1.14.12.91.23,1.83.28,2.76a10.55,10.55,0,0,1,.08,1.14C356.83,234.24,356.85,235.16,356.86,236.1Z" style="fill:#fff"></path></g><g style="opacity:0.1"><path d="M356.86,236.1v.43c0,.24,0,.46,0,.7,0,.92,0,1.84-.1,2.75,0,.38,0,.76-.09,1.14q-.11,1.4-.3,2.76c0,.39-.1.76-.15,1.14-.15.92-.32,1.84-.52,2.75-.08.37-.16.75-.25,1.13-.22.94-.46,1.86-.72,2.77l-.36,1.13c-.29.93-.61,1.85-.95,2.75-.15.39-.3.76-.46,1.14-.38.94-.78,1.86-1.21,2.76-.18.39-.38.76-.57,1.14-.48.94-1,1.85-1.5,2.75-.23.38-.45.76-.69,1.13-.59.95-1.22,1.87-1.87,2.77-.27.38-.55.76-.85,1.13q-1.1,1.44-2.28,2.76c-.34.39-.7.76-1.05,1.14-.91,1-1.86,1.88-2.85,2.75-.43.39-.88.77-1.33,1.14a41.75,41.75,0,0,1-3.73,2.76c-.59.4-1.19.77-1.8,1.13a42.15,42.15,0,0,1-5.45,2.75c-1,.43-2,.8-3,1.14a41.81,41.81,0,0,1-26.41,0c-1-.34-2-.71-3-1.14-17-7.13-29.09-25.16-29.09-46.27s12-39,28.95-46.22c.79-.33,1.6-.65,2.42-.93a41.77,41.77,0,0,1,27.91,0c1,.34,1.94.72,2.89,1.13a45.32,45.32,0,0,1,5.26,2.75c.6.37,1.18.74,1.76,1.14a42.23,42.23,0,0,1,3.66,2.76c.44.37.87.75,1.3,1.14,1,.87,1.91,1.78,2.81,2.75q.52.55,1,1.14a35.16,35.16,0,0,1,2.25,2.76c.3.37.58.75.86,1.13.63.9,1.25,1.82,1.83,2.76.24.38.46.75.68,1.14.52.9,1,1.81,1.49,2.75.18.38.37.75.55,1.14q.63,1.35,1.2,2.76c.16.37.3.75.44,1.14.34.89.66,1.81.94,2.75.13.37.24.76.34,1.13.27.91.5,1.83.72,2.76.09.38.17.77.25,1.14.18.91.35,1.83.49,2.75.06.38.11.75.16,1.14.12.91.23,1.83.28,2.76a10.55,10.55,0,0,1,.08,1.14C356.83,234.24,356.85,235.16,356.86,236.1Z"></path></g><g style="opacity:0.2"><path d="M327.77,282.8c-1,.43-2,.8-3,1.14H295.17V282.8Z"></path><path d="M335,278.92c-.59.4-1.19.77-1.8,1.13H295.17v-1.13Z"></path><path d="M340.08,275c-.43.39-.88.77-1.33,1.14H295.17V275Z"></path><path d="M344,271.13c-.34.39-.7.76-1.05,1.14H295.17v-1.14Z"></path><path d="M347.11,267.24c-.27.38-.55.76-.85,1.13H295.17v-1.13Z"></path><path d="M349.67,263.34c-.23.38-.45.76-.69,1.13H295.17v-1.13Z"></path><path d="M351.74,259.45c-.18.39-.38.76-.57,1.14h-56v-1.14Z"></path><path d="M353.41,255.55c-.15.39-.3.76-.46,1.14H295.17v-1.14Z"></path><path d="M354.72,251.67l-.36,1.13H295.17v-1.13Z"></path><path d="M355.69,247.77c-.08.37-.16.75-.25,1.13H295.17v-1.13Z"></path><path d="M356.36,243.88c0,.39-.1.76-.15,1.14h-61v-1.14Z"></path><path d="M356.75,240c0,.38,0,.76-.09,1.14H295.17V240Z"></path><path d="M356.86,236.1v.43c0,.24,0,.46,0,.7H295.17V236.1Z"></path><path d="M356.76,233.34H295.17V232.2h61.51A10.55,10.55,0,0,1,356.76,233.34Z"></path><path d="M356.4,229.44H295.17V228.3h61.07C356.3,228.68,356.35,229.05,356.4,229.44Z"></path><path d="M355.75,225.55H295.17v-1.14H355.5C355.59,224.79,355.67,225.18,355.75,225.55Z"></path><path d="M354.78,221.65H295.17v-1.13h59.27C354.57,220.89,354.68,221.28,354.78,221.65Z"></path><path d="M353.5,217.77H295.17v-1.14h57.89C353.22,217,353.36,217.38,353.5,217.77Z"></path><path d="M351.86,213.87H295.17v-1.14h56.14C351.49,213.11,351.68,213.48,351.86,213.87Z"></path><path d="M349.82,210H295.17v-1.14h54C349.38,209.22,349.6,209.59,349.82,210Z"></path><path d="M347.31,206.08H295.17V205h51.28C346.75,205.32,347,205.7,347.31,206.08Z"></path><path d="M344.2,202.19h-49v-1.14h48Q343.7,201.6,344.2,202.19Z"></path><path d="M340.37,198.3h-45.2v-1.14h43.9C339.51,197.53,339.94,197.91,340.37,198.3Z"></path><path d="M335.41,194.4H295.17v-1.14h38.48C334.25,193.63,334.83,194,335.41,194.4Z"></path><path d="M328.39,190.51H295.17v-1.13H325.5C326.48,189.72,327.44,190.1,328.39,190.51Z"></path></g><ellipse cx="303.59" cy="236.53" rx="45.32" ry="49.55" style="fill:#2563EB"></ellipse><g style="opacity:0.30000000000000004"><ellipse cx="303.59" cy="236.53" rx="45.32" ry="49.55" style="fill:#fff"></ellipse></g><ellipse cx="303.59" cy="236.53" rx="40.39" ry="44.16" style="fill:#2563EB"></ellipse><g style="opacity:0.2"><path d="M304.16,280.68h-.57c-22.31,0-40.39-19.77-40.39-44.16s18.08-44.16,40.39-44.16h.57c-22.05.33-39.83,20-39.83,44.15S282.11,280.35,304.16,280.68Z"></path></g><g style="opacity:0.2"><path d="M294.43,223.34V246H290.5l-10.31-13.73V246h-4.73V223.34h4l10.29,13.73V223.34Z"></path><path d="M304.12,227.54v6h9.57v4.2h-9.57V246h-4.79V223.34H315v4.2Z"></path><path d="M322.64,227.61H316v-4.27h18v4.27h-6.62V246h-4.79Z"></path></g><path d="M293.3,223.34V246h-3.93l-10.32-13.73V246h-4.73V223.34h4l10.29,13.73V223.34Z" style="fill:#2563EB"></path><path d="M303,227.54v6h9.58v4.2H303V246H298.2V223.34h15.63v4.2Z" style="fill:#2563EB"></path><path d="M321.5,227.61h-6.61v-4.27h18v4.27h-6.62V246H321.5Z" style="fill:#2563EB"></path><g style="opacity:0.30000000000000004"><path d="M293.3,223.34V246h-3.93l-10.32-13.73V246h-4.73V223.34h4l10.29,13.73V223.34Z" style="fill:#fff"></path><path d="M303,227.54v6h9.58v4.2H303V246H298.2V223.34h15.63v4.2Z" style="fill:#fff"></path><path d="M321.5,227.61h-6.61v-4.27h18v4.27h-6.62V246H321.5Z" style="fill:#fff"></path></g><path d="M308.45,187.26l-41.09,79a52.32,52.32,0,0,1-9.09-29.77c0-27.37,20.29-49.55,45.32-49.55A41.18,41.18,0,0,1,308.45,187.26Z" style="fill:#fff;opacity:0.1"></path><path d="M320.68,190.63l-44.42,85.42a45.33,45.33,0,0,1-6.6-6.68l42.39-81.53A42.23,42.23,0,0,1,320.68,190.63Z" style="fill:#fff;opacity:0.1"></path><path d="M328.67,195.26,284,281.21c-.77-.41-1.53-.83-2.26-1.28l44.79-86.15C327.25,194.24,328,194.74,328.67,195.26Z" style="fill:#fff;opacity:0.1"></path><polygon points="282.12 191.59 280.45 185.39 278.78 191.59 272.58 193.26 278.78 194.93 280.45 201.14 282.12 194.93 288.33 193.26 282.12 191.59" style="fill:#fff"></polygon><polygon points="337.76 256.62 336.41 251.61 335.06 256.62 330.05 257.97 335.06 259.32 336.41 264.33 337.76 259.32 342.77 257.97 337.76 256.62" style="fill:#fff"></polygon><polygon points="295.36 184.23 294.6 187.08 291.75 187.84 294.6 188.61 295.36 191.46 296.13 188.61 298.98 187.84 296.13 187.08 295.36 184.23" style="fill:#fff"></polygon><polygon points="291.94 209.12 291.17 211.97 288.33 212.73 291.17 213.5 291.94 216.34 292.71 213.5 295.55 212.73 292.71 211.97 291.94 209.12" style="fill:#fff"></polygon><polygon points="330.05 275.31 329.28 278.15 326.44 278.92 329.28 279.68 330.05 282.53 330.81 279.68 333.66 278.92 330.81 278.15 330.05 275.31" style="fill:#fff"></polygon></g><g id="freepik--speech-bubble--inject-62"><path d="M141.73,114.73h-28a9.63,9.63,0,0,0-9.63,9.63v27.23a9.63,9.63,0,0,0,9.63,9.63h19.15l6.51,8.39,0-8.39h2.39a9.64,9.64,0,0,0,9.63-9.63V124.36A9.63,9.63,0,0,0,141.73,114.73Z" style="fill:#2563EB"></path><path d="M127.72,122.65l-15.62,6.29s.22,20.18,15.62,24.73c15.4-4.55,15.62-24.73,15.62-24.73Z" style="fill:#fff"></path><path d="M127.72,124.84l-13.42,5.4s.18,17.34,13.42,21.25c13.23-3.91,13.42-21.25,13.42-21.25Z" style="fill:#2563EB"></path><path d="M127.72,124.84l-13.42,5.4s.18,17.34,13.42,21.25c13.23-3.91,13.42-21.25,13.42-21.25Z" style="fill:#fff;opacity:0.6000000000000001"></path><path d="M126.49,143.87a1.5,1.5,0,0,1-1.06-.44L120,138a1.5,1.5,0,0,1,2.13-2.12l4.34,4.34,6.83-7.29a1.5,1.5,0,1,1,2.19,2l-7.89,8.42a1.51,1.51,0,0,1-1.07.47Z" style="fill:#fff"></path></g><g id="freepik--Character--inject-62"><path d="M142.22,283.38s19.77-8.87,46.12-4.92c0,0-4.55-53.12-6.21-60.25s-39.49,1.23-39.49,1.23,2.45,21.16,2.06,34.23S140.56,281.15,142.22,283.38Z" style="fill:#263238"></path><path d="M142.22,283.38s19.77-8.87,46.12-4.92c0,0-4.55-53.12-6.21-60.25s-39.49,1.23-39.49,1.23,2.45,21.16,2.06,34.23S140.56,281.15,142.22,283.38Z" style="opacity:0.2"></path><polygon points="198.94 409.93 192.11 411.86 190.48 401.23 189.61 395.55 196.44 393.62 197.6 401.23 198.94 409.93" style="fill:#b55b52"></polygon><polygon points="159.67 410.49 152.63 411.42 152.56 401.23 152.51 394.9 159.57 393.98 159.61 401.23 159.67 410.49" style="fill:#b55b52"></polygon><polygon points="159.57 393.98 159.61 401.23 152.56 401.23 152.51 394.9 159.57 393.98" style="opacity:0.2"></polygon><polygon points="197.6 401.23 190.48 401.23 189.61 395.55 196.44 393.62 197.6 401.23" style="opacity:0.2"></polygon><path d="M198.85,408.86l-7.75-.21a.63.63,0,0,0-.62.47l-1.63,6.25a1,1,0,0,0,1,1.28c2.8,0,6.85,0,10.37.07,4.11.11,6.72-.09,11.55,0,2.91.08,3.83-2.83,2.62-3.13-5.52-1.36-9.12-1.09-13.81-4.17A3.39,3.39,0,0,0,198.85,408.86Z" style="fill:#263238"></path><path d="M199.41,409.72a.16.16,0,0,1,.1-.17c.33-.16,3.23-1.53,4.08-1a.55.55,0,0,1,.26.46.93.93,0,0,1-.35.8c-.8.67-2.82.33-4,.08h0A.18.18,0,0,1,199.41,409.72Zm.7-.08c1.56.3,2.73.27,3.18-.11a.6.6,0,0,0,.22-.53.18.18,0,0,0-.1-.18l-.06,0C202.82,408.59,201.26,409.14,200.11,409.64Z" style="fill:#2563EB"></path><path d="M199.48,409.84a.17.17,0,0,1-.07-.16,4.79,4.79,0,0,1,1.2-2.69,1.22,1.22,0,0,1,.95-.26c.46.06.58.29.61.48.1.8-1.66,2.29-2.53,2.65h-.12Zm2-2.78a.92.92,0,0,0-.69.19,4,4,0,0,0-1,2.16c.89-.5,2.09-1.67,2-2.15,0,0,0-.11-.15-.16A.61.61,0,0,0,201.51,407.06Z" style="fill:#2563EB"></path><path d="M159.39,408.86l-7.76-.21a.64.64,0,0,0-.62.47l-1.63,6.25a1,1,0,0,0,1,1.28c2.8,0,6.85,0,10.36.07,4.12.11,6.73-.09,11.55,0,2.92.08,3.83-2.83,2.62-3.13-5.51-1.36-9.11-1.09-13.81-4.17A3.35,3.35,0,0,0,159.39,408.86Z" style="fill:#263238"></path><path d="M160,409.72a.17.17,0,0,1,.09-.17c.33-.16,3.24-1.53,4.08-1a.54.54,0,0,1,.27.46,1,1,0,0,1-.35.8c-.8.67-2.83.33-4,.08h0A.17.17,0,0,1,160,409.72Zm.7-.08c1.55.3,2.73.27,3.18-.11a.6.6,0,0,0,.22-.53.18.18,0,0,0-.1-.18l-.06,0C163.36,408.59,161.79,409.14,160.65,409.64Z" style="fill:#2563EB"></path><path d="M160,409.84a.17.17,0,0,1-.06-.16,4.79,4.79,0,0,1,1.2-2.69,1.2,1.2,0,0,1,.94-.26c.46.06.59.29.61.48.1.8-1.65,2.29-2.52,2.65h-.13Zm2-2.78a.94.94,0,0,0-.7.19,4,4,0,0,0-1,2.16c.89-.5,2.09-1.67,2-2.15a.21.21,0,0,0-.15-.16Z" style="fill:#2563EB"></path><path d="M145.15,255.67c-3.73,16.18,2.67,143.39,2.67,143.39h12.37l5.29-106,19.48,106,13.22-1C189.54,316,181.9,266.94,181.9,266.94l0-6.2Z" style="fill:#2563EB"></path><path d="M145.15,255.67c-3.73,16.18,2.67,143.39,2.67,143.39h12.37l5.29-106,19.48,106,13.22-1C189.54,316,181.9,266.94,181.9,266.94l0-6.2Z" style="fill:#fff;opacity:0.6000000000000001"></path><path d="M169.63,315.6l-4.15-22.55.8-11.94S172,301.81,169.63,315.6Z" style="opacity:0.2"></path><polygon points="144.38 261.34 155.4 261.34 155.4 264.04 143.98 264.01 144.38 261.34" style="fill:#263238"></polygon><polygon points="156.41 261.34 175.77 261.34 175.77 264.09 156.41 264.04 156.41 261.34" style="fill:#263238"></polygon><polygon points="182.36 261.34 182.36 264.11 176.77 264.1 176.77 261.34 182.36 261.34" style="fill:#263238"></polygon><path d="M168.1,264.33h-2.87a.92.92,0,0,1-.92-.92V262a.92.92,0,0,1,.92-.92h2.87a.92.92,0,0,1,.91.92v1.4A.92.92,0,0,1,168.1,264.33Zm-2.87-2.74a.42.42,0,0,0-.42.42v1.4a.42.42,0,0,0,.42.42h2.87a.41.41,0,0,0,.41-.42V262a.41.41,0,0,0-.41-.42Z" style="fill:#fff"></path><path d="M168.12,263H167a.25.25,0,1,1,0-.5h1.14a.25.25,0,0,1,0,.5Z" style="fill:#fff"></path><path d="M181.08,206.1c7,.31,18.58,26.21,18.58,26.21l-5,7.48-14-18Z" style="fill:#263238"></path><path d="M180.71,221.8l.29.38,11.7,15,2,2.58,5-7.49s-11.6-25.89-18.58-26.21Z" style="fill:#fff;opacity:0.2"></path><path d="M181,222.18l11.7,15c0-.27-.1-.57-.17-.89-2.86-12.42-10.95-17.9-10.95-17.9A12.56,12.56,0,0,0,181,222.18Z" style="opacity:0.1"></path><path d="M141.29,206a126.45,126.45,0,0,1,3.43,20.55c.42,4.82.6,9.41.64,13.56.11,9.74-.15,20.77-.15,20.77s25.55,0,36.71-.11c6.71-34.88-1.48-53.18-1.48-53.18l-9.12-3.12s-1.27-.13-1.91-.17a149.45,149.45,0,0,0-15.76.17c-1,.05-2,.13-3,.22C145.7,205.12,141.29,206,141.29,206Z" style="fill:#2563EB"></path><path d="M154.88,205.29a16.65,16.65,0,0,0,11.9,4.77,3.6,3.6,0,0,0,3.83-3.6,7.5,7.5,0,0,1-3.1-1.75c-2.13-2.1-1.6-5.15-.62-8l-9-9a50.15,50.15,0,0,1,.27,7.51h0C158,199.33,157.17,203.42,154.88,205.29Z" style="fill:#b55b52"></path><path d="M158.2,195.23h0c1.48,4.31,4.26,9.11,9.31,9.47-2.13-2.1-1.6-5.15-.62-8l-9-9A50.15,50.15,0,0,1,158.2,195.23Z" style="opacity:0.2"></path><path d="M178.09,180.28c.75,2.69.1,8.16-3.57,6.25S176.81,175.64,178.09,180.28Z" style="fill:#263238"></path><path d="M158.74,183.2c-.65,6.84-1.38,10.82,1.51,14.81,4.34,6,13.22,4.13,15.91-2.4,2.43-5.88,3.09-16.08-3.15-19.76A9.48,9.48,0,0,0,158.74,183.2Z" style="fill:#b55b52"></path><path d="M163.68,179.64,164,172s-8.13-.89-7.91,3.29c-4.6,2.08-3.22,12.16,2.73,15.82,3.41-2.54,3.77-11.94,3.77-11.94C162.89,179.32,163.28,179.49,163.68,179.64Z" style="fill:#263238"></path><path d="M155.24,188.44a6.42,6.42,0,0,0,2.59,4.24c1.87,1.32,3.59-.16,3.74-2.33.13-1.95-.69-5-2.88-5.45A3,3,0,0,0,155.24,188.44Z" style="fill:#b55b52"></path><path d="M168.76,186.62c-.09.55.14,1,.5,1.1s.72-.35.81-.91-.13-1-.5-1.09S168.85,186.07,168.76,186.62Z" style="fill:#263238"></path><path d="M175,187.55c-.09.55.14,1,.5,1.09s.72-.35.81-.9-.13-1-.5-1.1S175.11,187,175,187.55Z" style="fill:#263238"></path><path d="M173,187.53a19.08,19.08,0,0,0,2,4.95,3.3,3.3,0,0,1-2.7.05Z" style="fill:#a02724"></path><path d="M169,194.21a7,7,0,0,0,.72.15.18.18,0,0,0,.19-.14.16.16,0,0,0-.14-.18,4.39,4.39,0,0,1-3.31-2.24.16.16,0,0,0-.22-.08.16.16,0,0,0-.08.22A4.61,4.61,0,0,0,169,194.21Z" style="fill:#263238"></path><path d="M167.15,184.32a.32.32,0,0,0,.32-.08,2.69,2.69,0,0,1,2.26-.78.33.33,0,0,0,.14-.64,3.32,3.32,0,0,0-2.86,1,.32.32,0,0,0,0,.46A.24.24,0,0,0,167.15,184.32Z" style="fill:#263238"></path><path d="M178.06,185.8a.41.41,0,0,0,.19,0,.32.32,0,0,0,.21-.41,3.25,3.25,0,0,0-2-2.17.34.34,0,0,0-.41.23.32.32,0,0,0,.22.4,2.54,2.54,0,0,1,1.6,1.74A.34.34,0,0,0,178.06,185.8Z" style="fill:#263238"></path><path d="M162.54,179.15s13.32,4.81,18.15.74-1-5.92-1-5.92,2,1.6.56,2.8c0,0-1.21-5.2-6.06-6.14a3.86,3.86,0,0,1,1.25,3.07,23.38,23.38,0,0,0-9-2.71C160.92,170.4,147,173.7,162.54,179.15Z" style="fill:#263238"></path><path d="M152.87,204.42a157.2,157.2,0,0,1,.84,27.39v0c-.72,12.4-9.82,53.76-9.82,53.76s-2.66-.62-3.4-1.95,3.68-19.92,3.28-33.41-4.31-43.64-4.31-43.64a44.42,44.42,0,0,1,9-1.83C149.79,204.63,151.26,204.49,152.87,204.42Z" style="fill:#263238"></path><path d="M140.48,283.65c.74,1.34,3.4,2,3.4,2s7-32.91,8.35-40.6a118.14,118.14,0,0,0,1.48-13.15s0,0,0,0c0-.48,0-.95.08-1.43a158.48,158.48,0,0,0-.88-25.65c0-.21,0-.32,0-.32-1.6.08-3.08.21-4.42.36a43.9,43.9,0,0,0-9,1.84s.9,7,1.9,15.76c0,.13,0,.26,0,.39.28,2.52.56,5.16.84,7.83h0c.52,5,1,10,1.26,14.29.13,2,.23,3.77.28,5.35C144.16,263.73,139.75,282.33,140.48,283.65Z" style="fill:#fff;opacity:0.2"></path><path d="M152.87,204.42a157.2,157.2,0,0,1,.84,27.39v0l-7.92-18.35,5-1.31L145.21,210l3.24-5.25C149.79,204.63,151.26,204.49,152.87,204.42Z" style="fill:#263238"></path><path d="M188.89,280.27l-1.15,1.16a434.23,434.23,0,0,0-6.55-47.05c-.24-1.28-.5-2.52-.74-3.7-4.67-22.49-8.86-26-9.13-26.24l3.47.58,6.29,1.08C186,225.14,188.89,280.27,188.89,280.27Z" style="fill:#263238"></path><path d="M188.89,280.27l-1.15,1.16a434.23,434.23,0,0,0-6.55-47.05c-.24-1.28-.5-2.52-.74-3.7-4.67-22.49-8.86-26-9.13-26.24l3.47.58,6.29,1.08C186,225.14,188.89,280.27,188.89,280.27Z" style="fill:#fff;opacity:0.2"></path><path d="M176.15,211.8l4.15,1.74s.83,11.23.15,17.14c-4.67-22.49-8.86-26-9.13-26.24l3.47.58a22.12,22.12,0,0,1,5.42,5.08Z" style="fill:#263238"></path><path d="M143.19,222.8a19.85,19.85,0,0,1-1,7.79c-.28-2.66-.57-5.31-.84-7.82A4.23,4.23,0,0,1,143.19,222.8Z" style="opacity:0.2"></path><path d="M143.48,244.89c.45.1.91.17,1.37.23a27.87,27.87,0,0,0,7.38-.12,31.86,31.86,0,0,0,4.94-1.09c17.25-5.6,17.19-9.31,17.19-9.31s-11.21,1.07-17-1.24a9.63,9.63,0,0,1-3.58-3c-4.27-5.19-7.66-14.74-7.66-14.74s-1.17,1.43-2.72,3.65c-.65.91-1.35,2-2.06,3.08,0,.13,0,.26,0,.39.28,2.52.56,5.16.84,7.83h0C142.74,235.57,143.2,240.6,143.48,244.89Z" style="opacity:0.1"></path><path d="M174.47,228.62l.54,4.52c2.21,4.25,7.17.46,7.17.46l3.12-.86a2.41,2.41,0,0,0,1.59-2.69l-.35-3.16A2.52,2.52,0,0,0,184,224.5l-2.81.29a5,5,0,0,0-2.28.84Z" style="fill:#b55b52"></path><path d="M139.45,206.61c-10.11,4.7,4,35.81,8,36.26,7.68.85,29-6.77,29-6.77l-1.35-8.59s-20.83,5.54-22.75,5c-2.47-.66-5.6-12.76-7.05-18.48A10.86,10.86,0,0,0,139.45,206.61Z" style="fill:#263238"></path><path d="M139.45,206.61c-10.11,4.7,4,35.81,8,36.26,7.68.85,29-6.77,29-6.77l-1.35-8.59s-20.83,5.54-22.75,5c-2.47-.66-5.6-12.76-7.05-18.48A10.86,10.86,0,0,0,139.45,206.61Z" style="fill:#fff;opacity:0.2"></path><path d="M187.9,245h0l17.48-1.23a1.67,1.67,0,0,0,1.43-1.3L212,216a1,1,0,0,0-.25-.9.87.87,0,0,0-.71-.24l-17.51,1.24a1.68,1.68,0,0,0-1.43,1.31L187,243.83A.88.88,0,0,0,187.9,245Z" style="fill:#263238"></path><path d="M187.9,245h0l17.48-1.23a1.67,1.67,0,0,0,1.43-1.3L212,216a1,1,0,0,0-.25-.9.87.87,0,0,0-.71-.24l-17.51,1.24a1.68,1.68,0,0,0-1.43,1.31L187,243.83A.88.88,0,0,0,187.9,245Z" style="fill:#fff;opacity:0.6000000000000001"></path><path d="M187.94,245l17.48-1.23a1.67,1.67,0,0,0,1.43-1.3L212,216a1,1,0,0,0-.25-.9l-17.47,1.24a1.67,1.67,0,0,0-1.43,1.3l-5.15,26.41A.91.91,0,0,0,187.94,245Z" style="fill:#fff;opacity:0.2"></path><path d="M199.34,229.51a1.86,1.86,0,1,0,2.17-1.87A2,2,0,0,0,199.34,229.51Z" style="opacity:0.2"></path><path d="M211.52,230.13l-1.19,4.33c-2.57,4.42-6.18,2-6.18,2l-2.52-.14c-.86,0-1.24-1-.92-2.16l.81-3a3.79,3.79,0,0,1,2.58-2.77l2.34-.33a2.79,2.79,0,0,1,1.81.29Z" style="fill:#b55b52"></path></g></svg>
